<mxfile host="65bd71144e" scale="5" border="0">
    <diagram id="I3MWiBG2jOvEPaPsKPGd" name="Page-1">
        <mxGraphModel dx="4812" dy="792" grid="0" gridSize="10" guides="1" tooltips="1" connect="1" arrows="1" fold="1" page="1" pageScale="1" pageWidth="827" pageHeight="1169" math="0" shadow="0">
            <root>
                <mxCell id="0"/>
                <mxCell id="39" value="Background" parent="0"/>
                <mxCell id="38" value="" style="rounded=1;whiteSpace=wrap;html=1;fontSize=20;arcSize=4;fillColor=default;" parent="39" vertex="1">
                    <mxGeometry x="80" y="360" width="710" height="400" as="geometry"/>
                </mxCell>
                <mxCell id="40" value="structOrImplOrFuncList" style="text;html=1;align=center;verticalAlign=middle;resizable=0;points=[];autosize=1;strokeColor=none;fillColor=none;fontSize=20;" parent="39" vertex="1">
                    <mxGeometry x="100" y="370" width="220" height="30" as="geometry"/>
                </mxCell>
                <mxCell id="272" value="" style="rounded=1;whiteSpace=wrap;html=1;fontSize=20;arcSize=4;fillColor=default;fontStyle=1" parent="39" vertex="1">
                    <mxGeometry x="1720" y="4090" width="640" height="400" as="geometry"/>
                </mxCell>
                <mxCell id="273" value="&lt;span&gt;fparam&lt;/span&gt;" style="text;html=1;align=center;verticalAlign=middle;resizable=0;points=[];autosize=1;strokeColor=none;fillColor=none;fontSize=20;fontStyle=1" parent="39" vertex="1">
                    <mxGeometry x="1763" y="4100" width="80" height="30" as="geometry"/>
                </mxCell>
                <mxCell id="277" style="edgeStyle=none;html=1;exitX=0.25;exitY=1;exitDx=0;exitDy=0;entryX=0.5;entryY=0;entryDx=0;entryDy=0;fontSize=20;strokeColor=default;" parent="39" source="280" target="281" edge="1">
                    <mxGeometry relative="1" as="geometry"/>
                </mxCell>
                <mxCell id="283" style="edgeStyle=none;html=1;exitX=0.5;exitY=1;exitDx=0;exitDy=0;entryX=0.5;entryY=0;entryDx=0;entryDy=0;fontSize=15;" parent="39" source="280" target="282" edge="1">
                    <mxGeometry relative="1" as="geometry"/>
                </mxCell>
                <mxCell id="280" value="&lt;span&gt;fparam&lt;/span&gt;" style="rounded=1;whiteSpace=wrap;html=1;arcSize=50;fontSize=20;fontStyle=1" parent="39" vertex="1">
                    <mxGeometry x="1955" y="4170" width="160" height="60" as="geometry"/>
                </mxCell>
                <mxCell id="281" value="&lt;font style=&quot;font-size: 20px&quot;&gt;&lt;span style=&quot;font-size: 20px;&quot;&gt;id&lt;/span&gt;&lt;/font&gt;" style="rounded=1;whiteSpace=wrap;html=1;arcSize=50;fontSize=20;fontStyle=1" parent="39" vertex="1">
                    <mxGeometry x="1801.5" y="4320" width="60" height="60" as="geometry"/>
                </mxCell>
                <mxCell id="282" value="&lt;font style=&quot;font-size: 20px&quot;&gt;&lt;span style=&quot;font-size: 20px&quot;&gt;type&lt;/span&gt;&lt;/font&gt;" style="rounded=1;whiteSpace=wrap;html=1;arcSize=50;fontSize=20;fontStyle=1" parent="39" vertex="1">
                    <mxGeometry x="1990" y="4330" width="60" height="60" as="geometry"/>
                </mxCell>
                <mxCell id="295" value="" style="rounded=1;whiteSpace=wrap;html=1;fontSize=20;arcSize=4;fillColor=default;fontStyle=1" parent="39" vertex="1">
                    <mxGeometry x="-1852" y="1558" width="530" height="450" as="geometry"/>
                </mxCell>
                <mxCell id="296" value="&lt;span&gt;statement&lt;/span&gt;" style="text;html=1;align=center;verticalAlign=middle;resizable=0;points=[];autosize=1;strokeColor=none;fillColor=none;fontSize=20;fontStyle=1" parent="39" vertex="1">
                    <mxGeometry x="-1824" y="1568" width="110" height="30" as="geometry"/>
                </mxCell>
                <mxCell id="307" value="&lt;span&gt;ifStat&lt;/span&gt;" style="rounded=1;whiteSpace=wrap;html=1;arcSize=50;fontSize=20;fontStyle=1" parent="39" vertex="1">
                    <mxGeometry x="-1777" y="1690" width="160" height="60" as="geometry"/>
                </mxCell>
                <mxCell id="308" value="&lt;span&gt;whileStat&lt;br&gt;&lt;/span&gt;" style="rounded=1;whiteSpace=wrap;html=1;arcSize=50;fontSize=20;fontStyle=1" parent="39" vertex="1">
                    <mxGeometry x="-1564" y="1679" width="160" height="60" as="geometry"/>
                </mxCell>
                <mxCell id="309" value="&lt;span&gt;readStat&lt;br&gt;&lt;/span&gt;" style="rounded=1;whiteSpace=wrap;html=1;arcSize=50;fontSize=20;fontStyle=1" parent="39" vertex="1">
                    <mxGeometry x="-1821" y="1797" width="160" height="60" as="geometry"/>
                </mxCell>
                <mxCell id="312" value="&lt;span&gt;writeStat&lt;/span&gt;" style="rounded=1;whiteSpace=wrap;html=1;arcSize=50;fontSize=20;fontStyle=1" parent="39" vertex="1">
                    <mxGeometry x="-1637" y="1794" width="160" height="60" as="geometry"/>
                </mxCell>
                <mxCell id="315" value="&lt;span&gt;returnStat&lt;br&gt;&lt;/span&gt;" style="rounded=1;whiteSpace=wrap;html=1;arcSize=50;fontSize=20;fontStyle=1" parent="39" vertex="1">
                    <mxGeometry x="-1714" y="1859" width="160" height="60" as="geometry"/>
                </mxCell>
                <mxCell id="316" value="&lt;span&gt;functionCall&lt;br&gt;&lt;/span&gt;" style="rounded=1;whiteSpace=wrap;html=1;arcSize=50;fontSize=20;fontStyle=1" parent="39" vertex="1">
                    <mxGeometry x="-1786" y="1608" width="160" height="60" as="geometry"/>
                </mxCell>
                <mxCell id="451" value="" style="rounded=1;whiteSpace=wrap;html=1;fontSize=20;arcSize=4;fillColor=default;fontStyle=1" parent="39" vertex="1">
                    <mxGeometry x="-1585" y="1085" width="669" height="244" as="geometry"/>
                </mxCell>
                <mxCell id="1" value="Foreground" parent="0"/>
                <mxCell id="29" value="" style="group;fontSize=20;fontStyle=1" parent="1" vertex="1" connectable="0">
                    <mxGeometry x="130" y="570" width="180" height="180" as="geometry"/>
                </mxCell>
                <mxCell id="30" value="" style="triangle;whiteSpace=wrap;html=1;rotation=-90;fontSize=20;fontStyle=1" parent="29" vertex="1">
                    <mxGeometry x="30" y="-60" width="120" height="240" as="geometry"/>
                </mxCell>
                <mxCell id="31" value="struct&lt;br&gt;OrImpl&lt;br&gt;OrFunc" style="text;html=1;strokeColor=none;fillColor=none;align=center;verticalAlign=middle;whiteSpace=wrap;rounded=0;fontSize=20;fontStyle=1" parent="29" vertex="1">
                    <mxGeometry x="55" y="55" width="70" height="40" as="geometry"/>
                </mxCell>
                <mxCell id="19" style="edgeStyle=none;html=1;exitX=0.5;exitY=1;exitDx=0;exitDy=0;entryX=1;entryY=0.5;entryDx=0;entryDy=0;fontSize=20;fontStyle=1" parent="1" source="3" target="24" edge="1">
                    <mxGeometry relative="1" as="geometry">
                        <mxPoint x="490" y="200" as="targetPoint"/>
                    </mxGeometry>
                </mxCell>
                <mxCell id="3" value="prog" style="rounded=1;whiteSpace=wrap;html=1;arcSize=50;fontSize=20;fontStyle=1" parent="1" vertex="1">
                    <mxGeometry x="430" y="70" width="120" height="60" as="geometry"/>
                </mxCell>
                <mxCell id="23" value="" style="group;fontSize=20;fontStyle=1" parent="1" vertex="1" connectable="0">
                    <mxGeometry x="370" y="180" width="220" height="220" as="geometry"/>
                </mxCell>
                <mxCell id="24" value="" style="triangle;whiteSpace=wrap;html=1;rotation=-90;fontSize=20;fontStyle=1" parent="23" vertex="1">
                    <mxGeometry x="60" y="-100" width="120" height="320" as="geometry"/>
                </mxCell>
                <mxCell id="25" value="&lt;font style=&quot;font-size: 15px&quot;&gt;structOrImplOrFuncList&lt;/font&gt;" style="text;html=1;strokeColor=none;fillColor=none;align=center;verticalAlign=middle;whiteSpace=wrap;rounded=0;fontSize=20;fontStyle=1" parent="23" vertex="1">
                    <mxGeometry x="85" y="55" width="70" height="40" as="geometry"/>
                </mxCell>
                <mxCell id="27" style="html=1;exitX=0.5;exitY=1;exitDx=0;exitDy=0;entryX=1;entryY=0.5;entryDx=0;entryDy=0;strokeColor=default;fontSize=20;fontStyle=1" parent="1" source="28" target="30" edge="1">
                    <mxGeometry relative="1" as="geometry">
                        <mxPoint x="410" y="550" as="targetPoint"/>
                        <Array as="points">
                            <mxPoint x="370" y="500"/>
                            <mxPoint x="220" y="500"/>
                        </Array>
                    </mxGeometry>
                </mxCell>
                <mxCell id="28" value="structOrImplOrFuncList" style="rounded=1;whiteSpace=wrap;html=1;arcSize=50;fontSize=20;fontStyle=1" parent="1" vertex="1">
                    <mxGeometry x="235" y="420" width="270" height="60" as="geometry"/>
                </mxCell>
                <mxCell id="32" value="&lt;font style=&quot;font-size: 20px&quot;&gt;&lt;span style=&quot;font-size: 20px;&quot;&gt;...&lt;/span&gt;&lt;/font&gt;" style="text;html=1;align=center;verticalAlign=middle;resizable=0;points=[];autosize=1;strokeColor=none;fillColor=none;fontSize=20;fontStyle=1" parent="1" vertex="1">
                    <mxGeometry x="357" y="621" width="27" height="28" as="geometry"/>
                </mxCell>
                <mxCell id="33" value="" style="triangle;whiteSpace=wrap;html=1;rotation=-90;fontSize=20;fontStyle=1" parent="1" vertex="1">
                    <mxGeometry x="460" y="510" width="120" height="240" as="geometry"/>
                </mxCell>
                <mxCell id="34" value="struct&lt;br&gt;OrImpl&lt;br&gt;OrFunc" style="text;html=1;strokeColor=none;fillColor=none;align=center;verticalAlign=middle;whiteSpace=wrap;rounded=0;fontSize=20;fontStyle=1" parent="1" vertex="1">
                    <mxGeometry x="485" y="625" width="70" height="40" as="geometry"/>
                </mxCell>
                <mxCell id="35" style="html=1;exitX=0.5;exitY=1;exitDx=0;exitDy=0;entryX=1;entryY=0.5;entryDx=0;entryDy=0;strokeColor=default;fontSize=20;fontStyle=1" parent="1" source="28" target="33" edge="1">
                    <mxGeometry relative="1" as="geometry">
                        <mxPoint x="260" y="580" as="targetPoint"/>
                        <mxPoint x="420" y="490" as="sourcePoint"/>
                        <Array as="points">
                            <mxPoint x="370" y="500"/>
                            <mxPoint x="520" y="500"/>
                        </Array>
                    </mxGeometry>
                </mxCell>
                <mxCell id="37" value="&lt;font style=&quot;font-size: 20px&quot;&gt;&lt;span style=&quot;font-size: 20px;&quot;&gt;ε&lt;/span&gt;&lt;/font&gt;" style="rounded=1;whiteSpace=wrap;html=1;arcSize=50;fontSize=20;fontStyle=1" parent="1" vertex="1">
                    <mxGeometry x="660" y="420" width="60" height="60" as="geometry"/>
                </mxCell>
                <mxCell id="41" value="" style="rounded=1;whiteSpace=wrap;html=1;fontSize=20;arcSize=4;fillColor=default;fontStyle=1" parent="1" vertex="1">
                    <mxGeometry x="70" y="820" width="890" height="255" as="geometry"/>
                </mxCell>
                <mxCell id="42" value="structOrImplOrFunc" style="text;html=1;align=center;verticalAlign=middle;resizable=0;points=[];autosize=1;strokeColor=none;fillColor=none;fontSize=20;fontStyle=1" parent="1" vertex="1">
                    <mxGeometry x="100" y="831" width="201" height="28" as="geometry"/>
                </mxCell>
                <mxCell id="43" value="" style="group;fontSize=20;fontStyle=1" parent="1" vertex="1" connectable="0">
                    <mxGeometry x="120" y="1030" width="180" height="180" as="geometry"/>
                </mxCell>
                <mxCell id="44" value="" style="triangle;whiteSpace=wrap;html=1;rotation=-90;fontSize=20;fontStyle=1" parent="43" vertex="1">
                    <mxGeometry x="25" y="-182" width="120" height="240" as="geometry"/>
                </mxCell>
                <mxCell id="45" value="structDecl" style="text;html=1;strokeColor=none;fillColor=none;align=center;verticalAlign=middle;whiteSpace=wrap;rounded=0;fontSize=20;fontStyle=1" parent="43" vertex="1">
                    <mxGeometry x="50" y="-67" width="70" height="40" as="geometry"/>
                </mxCell>
                <mxCell id="49" value="" style="triangle;whiteSpace=wrap;html=1;rotation=-90;fontSize=20;fontStyle=1" parent="1" vertex="1">
                    <mxGeometry x="445" y="848" width="120" height="240" as="geometry"/>
                </mxCell>
                <mxCell id="50" value="implDef" style="text;html=1;strokeColor=none;fillColor=none;align=center;verticalAlign=middle;whiteSpace=wrap;rounded=0;fontSize=20;fontStyle=1" parent="1" vertex="1">
                    <mxGeometry x="470" y="963" width="70" height="40" as="geometry"/>
                </mxCell>
                <mxCell id="54" value="" style="triangle;whiteSpace=wrap;html=1;rotation=-90;fontSize=20;fontStyle=1" parent="1" vertex="1">
                    <mxGeometry x="735" y="848" width="120" height="240" as="geometry"/>
                </mxCell>
                <mxCell id="55" value="funcDef" style="text;html=1;strokeColor=none;fillColor=none;align=center;verticalAlign=middle;whiteSpace=wrap;rounded=0;fontSize=20;fontStyle=1" parent="1" vertex="1">
                    <mxGeometry x="760" y="963" width="70" height="40" as="geometry"/>
                </mxCell>
                <mxCell id="59" value="" style="rounded=1;whiteSpace=wrap;html=1;fontSize=20;arcSize=4;fillColor=default;fontStyle=1" parent="1" vertex="1">
                    <mxGeometry x="1935" y="265" width="890" height="400" as="geometry"/>
                </mxCell>
                <mxCell id="60" value="structDecl" style="text;html=1;align=center;verticalAlign=middle;resizable=0;points=[];autosize=1;strokeColor=none;fillColor=none;fontSize=20;fontStyle=1" parent="1" vertex="1">
                    <mxGeometry x="1965" y="276" width="108" height="28" as="geometry"/>
                </mxCell>
                <mxCell id="64" style="edgeStyle=none;html=1;exitX=0.25;exitY=1;exitDx=0;exitDy=0;entryX=1;entryY=0.25;entryDx=0;entryDy=0;fontSize=20;strokeColor=default;fontStyle=1" parent="1" source="67" target="74" edge="1">
                    <mxGeometry relative="1" as="geometry">
                        <mxPoint x="2075" y="475" as="targetPoint"/>
                    </mxGeometry>
                </mxCell>
                <mxCell id="65" style="edgeStyle=none;html=1;exitX=0.5;exitY=1;exitDx=0;exitDy=0;entryX=1;entryY=0.5;entryDx=0;entryDy=0;fontSize=20;strokeColor=default;fontStyle=1" parent="1" source="67" target="68" edge="1">
                    <mxGeometry relative="1" as="geometry"/>
                </mxCell>
                <mxCell id="66" style="edgeStyle=none;html=1;exitX=0.75;exitY=1;exitDx=0;exitDy=0;entryX=1;entryY=0.5;entryDx=0;entryDy=0;fontSize=20;strokeColor=default;fontStyle=1" parent="1" source="67" target="70" edge="1">
                    <mxGeometry relative="1" as="geometry"/>
                </mxCell>
                <mxCell id="67" value="structDecl" style="rounded=1;whiteSpace=wrap;html=1;arcSize=50;fontSize=20;fontStyle=1" parent="1" vertex="1">
                    <mxGeometry x="2295" y="325" width="160" height="60" as="geometry"/>
                </mxCell>
                <mxCell id="68" value="" style="triangle;whiteSpace=wrap;html=1;rotation=-90;fontSize=20;fontStyle=1" parent="1" vertex="1">
                    <mxGeometry x="2315" y="415" width="120" height="240" as="geometry"/>
                </mxCell>
                <mxCell id="69" value="inherList" style="text;html=1;strokeColor=none;fillColor=none;align=center;verticalAlign=middle;whiteSpace=wrap;rounded=0;fontSize=20;fontStyle=1" parent="1" vertex="1">
                    <mxGeometry x="2340" y="530" width="70" height="40" as="geometry"/>
                </mxCell>
                <mxCell id="70" value="" style="triangle;whiteSpace=wrap;html=1;rotation=-90;fontSize=20;fontStyle=1" parent="1" vertex="1">
                    <mxGeometry x="2605" y="415" width="120" height="240" as="geometry"/>
                </mxCell>
                <mxCell id="71" value="memberList" style="text;html=1;strokeColor=none;fillColor=none;align=center;verticalAlign=middle;whiteSpace=wrap;rounded=0;fontSize=20;fontStyle=1" parent="1" vertex="1">
                    <mxGeometry x="2630" y="530" width="70" height="40" as="geometry"/>
                </mxCell>
                <mxCell id="72" value="The structDecl always starts with 'struct' 'id'" style="text;html=1;align=center;verticalAlign=middle;resizable=0;points=[];autosize=1;strokeColor=none;fillColor=none;fontSize=20;fontStyle=1" parent="1" vertex="1">
                    <mxGeometry x="1506" y="266" width="429" height="28" as="geometry"/>
                </mxCell>
                <mxCell id="74" value="&lt;font style=&quot;font-size: 20px&quot;&gt;&lt;span style=&quot;font-size: 20px;&quot;&gt;id&lt;/span&gt;&lt;/font&gt;" style="rounded=1;whiteSpace=wrap;html=1;arcSize=50;fontSize=20;fontStyle=1" parent="1" vertex="1">
                    <mxGeometry x="2035" y="505" width="60" height="60" as="geometry"/>
                </mxCell>
                <mxCell id="75" value="" style="rounded=1;whiteSpace=wrap;html=1;fontSize=20;arcSize=4;fillColor=default;fontStyle=1" parent="1" vertex="1">
                    <mxGeometry x="1930" y="760" width="640" height="400" as="geometry"/>
                </mxCell>
                <mxCell id="76" value="inherList" style="text;html=1;align=center;verticalAlign=middle;resizable=0;points=[];autosize=1;strokeColor=none;fillColor=none;fontSize=20;fontStyle=1" parent="1" vertex="1">
                    <mxGeometry x="1966" y="771" width="94" height="28" as="geometry"/>
                </mxCell>
                <mxCell id="78" style="edgeStyle=none;html=1;exitX=0.25;exitY=1;exitDx=0;exitDy=0;entryX=0.5;entryY=0;entryDx=0;entryDy=0;fontSize=20;strokeColor=default;fontStyle=1" parent="1" source="80" target="88" edge="1">
                    <mxGeometry relative="1" as="geometry">
                        <mxPoint x="2080" y="970" as="targetPoint"/>
                    </mxGeometry>
                </mxCell>
                <mxCell id="79" style="edgeStyle=none;html=1;exitX=0.75;exitY=1;exitDx=0;exitDy=0;entryX=0.5;entryY=0;entryDx=0;entryDy=0;fontSize=20;strokeColor=default;fontStyle=1" parent="1" source="80" target="89" edge="1">
                    <mxGeometry relative="1" as="geometry">
                        <mxPoint x="2370" y="970" as="targetPoint"/>
                    </mxGeometry>
                </mxCell>
                <mxCell id="80" value="&lt;span style=&quot;font-size: 20px&quot;&gt;inherList&lt;/span&gt;" style="rounded=1;whiteSpace=wrap;html=1;arcSize=50;fontSize=20;fontStyle=1" parent="1" vertex="1">
                    <mxGeometry x="2125" y="820" width="160" height="60" as="geometry"/>
                </mxCell>
                <mxCell id="86" value="&lt;font style=&quot;font-size: 20px&quot;&gt;&lt;span style=&quot;font-size: 20px;&quot;&gt;ε&lt;/span&gt;&lt;/font&gt;" style="rounded=1;whiteSpace=wrap;html=1;arcSize=50;fontSize=20;fontStyle=1" parent="1" vertex="1">
                    <mxGeometry x="2440" y="820" width="60" height="60" as="geometry"/>
                </mxCell>
                <mxCell id="87" value="&lt;font style=&quot;font-size: 20px&quot;&gt;&lt;span style=&quot;font-size: 20px;&quot;&gt;...&lt;/span&gt;&lt;/font&gt;" style="text;html=1;align=center;verticalAlign=middle;resizable=0;points=[];autosize=1;strokeColor=none;fillColor=none;fontSize=20;fontStyle=1" parent="1" vertex="1">
                    <mxGeometry x="2192" y="1026" width="27" height="28" as="geometry"/>
                </mxCell>
                <mxCell id="88" value="&lt;font style=&quot;font-size: 20px&quot;&gt;&lt;span style=&quot;font-size: 20px;&quot;&gt;id&lt;/span&gt;&lt;/font&gt;" style="rounded=1;whiteSpace=wrap;html=1;arcSize=50;fontSize=20;fontStyle=1" parent="1" vertex="1">
                    <mxGeometry x="2040" y="1005" width="60" height="60" as="geometry"/>
                </mxCell>
                <mxCell id="89" value="&lt;font style=&quot;font-size: 20px&quot;&gt;&lt;span style=&quot;font-size: 20px;&quot;&gt;id&lt;/span&gt;&lt;/font&gt;" style="rounded=1;whiteSpace=wrap;html=1;arcSize=50;fontSize=20;fontStyle=1" parent="1" vertex="1">
                    <mxGeometry x="2315" y="1005" width="60" height="60" as="geometry"/>
                </mxCell>
                <mxCell id="90" value="" style="rounded=1;whiteSpace=wrap;html=1;fontSize=20;arcSize=4;fillColor=default;fontStyle=1" parent="1" vertex="1">
                    <mxGeometry x="1970" y="1260" width="640" height="400" as="geometry"/>
                </mxCell>
                <mxCell id="91" value="memberList" style="text;html=1;align=center;verticalAlign=middle;resizable=0;points=[];autosize=1;strokeColor=none;fillColor=none;fontSize=20;fontStyle=1" parent="1" vertex="1">
                    <mxGeometry x="1992" y="1271" width="123" height="28" as="geometry"/>
                </mxCell>
                <mxCell id="92" style="edgeStyle=none;html=1;exitX=0.25;exitY=1;exitDx=0;exitDy=0;entryX=1;entryY=0.5;entryDx=0;entryDy=0;fontSize=20;strokeColor=default;fontStyle=1" parent="1" source="94" target="99" edge="1">
                    <mxGeometry relative="1" as="geometry">
                        <mxPoint x="2110" y="1505" as="targetPoint"/>
                    </mxGeometry>
                </mxCell>
                <mxCell id="93" style="edgeStyle=none;html=1;exitX=0.75;exitY=1;exitDx=0;exitDy=0;entryX=1;entryY=0.5;entryDx=0;entryDy=0;fontSize=20;strokeColor=default;fontStyle=1" parent="1" source="94" target="103" edge="1">
                    <mxGeometry relative="1" as="geometry">
                        <mxPoint x="2385" y="1505" as="targetPoint"/>
                    </mxGeometry>
                </mxCell>
                <mxCell id="94" value="&lt;span style=&quot;font-size: 20px&quot;&gt;memberList&lt;/span&gt;" style="rounded=1;whiteSpace=wrap;html=1;arcSize=50;fontSize=20;fontStyle=1" parent="1" vertex="1">
                    <mxGeometry x="2165" y="1320" width="160" height="60" as="geometry"/>
                </mxCell>
                <mxCell id="95" value="&lt;font style=&quot;font-size: 20px&quot;&gt;&lt;span style=&quot;font-size: 20px;&quot;&gt;ε&lt;/span&gt;&lt;/font&gt;" style="rounded=1;whiteSpace=wrap;html=1;arcSize=50;fontSize=20;fontStyle=1" parent="1" vertex="1">
                    <mxGeometry x="2480" y="1320" width="60" height="60" as="geometry"/>
                </mxCell>
                <mxCell id="96" value="&lt;font style=&quot;font-size: 20px&quot;&gt;&lt;span style=&quot;font-size: 20px;&quot;&gt;...&lt;/span&gt;&lt;/font&gt;" style="text;html=1;align=center;verticalAlign=middle;resizable=0;points=[];autosize=1;strokeColor=none;fillColor=none;fontSize=20;fontStyle=1" parent="1" vertex="1">
                    <mxGeometry x="2232" y="1526" width="27" height="28" as="geometry"/>
                </mxCell>
                <mxCell id="101" value="" style="group;fontSize=20;fontStyle=1" parent="1" vertex="1" connectable="0">
                    <mxGeometry x="2000" y="1470" width="240" height="120" as="geometry"/>
                </mxCell>
                <mxCell id="99" value="" style="triangle;whiteSpace=wrap;html=1;rotation=-90;fontSize=20;fontStyle=1" parent="101" vertex="1">
                    <mxGeometry x="60" y="-60" width="120" height="240" as="geometry"/>
                </mxCell>
                <mxCell id="100" value="member" style="text;html=1;strokeColor=none;fillColor=none;align=center;verticalAlign=middle;whiteSpace=wrap;rounded=0;fontSize=20;fontStyle=1" parent="101" vertex="1">
                    <mxGeometry x="85" y="55" width="70" height="40" as="geometry"/>
                </mxCell>
                <mxCell id="102" value="" style="group;fontSize=20;fontStyle=1" parent="1" vertex="1" connectable="0">
                    <mxGeometry x="2285" y="1470" width="240" height="120" as="geometry"/>
                </mxCell>
                <mxCell id="103" value="" style="triangle;whiteSpace=wrap;html=1;rotation=-90;fontSize=20;fontStyle=1" parent="102" vertex="1">
                    <mxGeometry x="60" y="-60" width="120" height="240" as="geometry"/>
                </mxCell>
                <mxCell id="104" value="member" style="text;html=1;strokeColor=none;fillColor=none;align=center;verticalAlign=middle;whiteSpace=wrap;rounded=0;fontSize=20;fontStyle=1" parent="102" vertex="1">
                    <mxGeometry x="85" y="55" width="70" height="40" as="geometry"/>
                </mxCell>
                <mxCell id="119" value="" style="rounded=1;whiteSpace=wrap;html=1;fontSize=20;arcSize=4;fillColor=default;fontStyle=1" parent="1" vertex="1">
                    <mxGeometry x="1965" y="1740" width="640" height="400" as="geometry"/>
                </mxCell>
                <mxCell id="120" value="member" style="text;html=1;align=center;verticalAlign=middle;resizable=0;points=[];autosize=1;strokeColor=none;fillColor=none;fontSize=20;fontStyle=1" parent="1" vertex="1">
                    <mxGeometry x="2005" y="1751" width="88" height="28" as="geometry"/>
                </mxCell>
                <mxCell id="121" style="edgeStyle=none;html=1;exitX=0.25;exitY=1;exitDx=0;exitDy=0;entryX=1;entryY=0.5;entryDx=0;entryDy=0;fontSize=20;strokeColor=default;fontStyle=1" parent="1" source="123" target="127" edge="1">
                    <mxGeometry relative="1" as="geometry">
                        <mxPoint x="2105" y="1985" as="targetPoint"/>
                    </mxGeometry>
                </mxCell>
                <mxCell id="122" style="edgeStyle=none;html=1;exitX=0.75;exitY=1;exitDx=0;exitDy=0;entryX=1;entryY=0.5;entryDx=0;entryDy=0;fontSize=20;strokeColor=default;fontStyle=1" parent="1" source="123" target="130" edge="1">
                    <mxGeometry relative="1" as="geometry">
                        <mxPoint x="2380" y="1985" as="targetPoint"/>
                    </mxGeometry>
                </mxCell>
                <mxCell id="123" value="&lt;span style=&quot;font-size: 20px&quot;&gt;member&lt;/span&gt;" style="rounded=1;whiteSpace=wrap;html=1;arcSize=50;fontSize=20;fontStyle=1" parent="1" vertex="1">
                    <mxGeometry x="2160" y="1800" width="160" height="60" as="geometry"/>
                </mxCell>
                <mxCell id="126" value="" style="group;fontSize=20;fontStyle=1" parent="1" vertex="1" connectable="0">
                    <mxGeometry x="1995" y="1950" width="240" height="120" as="geometry"/>
                </mxCell>
                <mxCell id="127" value="" style="triangle;whiteSpace=wrap;html=1;rotation=-90;fontSize=20;fontStyle=1" parent="126" vertex="1">
                    <mxGeometry x="60" y="-60" width="120" height="240" as="geometry"/>
                </mxCell>
                <mxCell id="128" value="visibility" style="text;html=1;strokeColor=none;fillColor=none;align=center;verticalAlign=middle;whiteSpace=wrap;rounded=0;fontSize=20;fontStyle=1" parent="126" vertex="1">
                    <mxGeometry x="85" y="55" width="70" height="40" as="geometry"/>
                </mxCell>
                <mxCell id="129" value="" style="group;fontSize=20;fontStyle=1" parent="1" vertex="1" connectable="0">
                    <mxGeometry x="2280" y="1950" width="240" height="120" as="geometry"/>
                </mxCell>
                <mxCell id="130" value="" style="triangle;whiteSpace=wrap;html=1;rotation=-90;fontSize=20;fontStyle=1" parent="129" vertex="1">
                    <mxGeometry x="60" y="-60" width="120" height="240" as="geometry"/>
                </mxCell>
                <mxCell id="131" value="memberDecl" style="text;html=1;strokeColor=none;fillColor=none;align=center;verticalAlign=middle;whiteSpace=wrap;rounded=0;fontSize=20;fontStyle=1" parent="129" vertex="1">
                    <mxGeometry x="85" y="55" width="70" height="40" as="geometry"/>
                </mxCell>
                <mxCell id="132" value="" style="rounded=1;whiteSpace=wrap;html=1;fontSize=20;arcSize=4;fillColor=default;fontStyle=1" parent="1" vertex="1">
                    <mxGeometry x="1965" y="2220" width="475" height="240" as="geometry"/>
                </mxCell>
                <mxCell id="133" value="visibility" style="text;html=1;align=center;verticalAlign=middle;resizable=0;points=[];autosize=1;strokeColor=none;fillColor=none;fontSize=20;fontStyle=1" parent="1" vertex="1">
                    <mxGeometry x="2004" y="2231" width="90" height="28" as="geometry"/>
                </mxCell>
                <mxCell id="143" value="&lt;font style=&quot;font-size: 20px&quot;&gt;&lt;span style=&quot;font-size: 20px;&quot;&gt;public&lt;/span&gt;&lt;/font&gt;" style="rounded=1;whiteSpace=wrap;html=1;arcSize=50;fontSize=20;fontStyle=1" parent="1" vertex="1">
                    <mxGeometry x="2051.5" y="2300" width="102" height="60" as="geometry"/>
                </mxCell>
                <mxCell id="145" value="&lt;span style=&quot;font-size: 20px&quot;&gt;&lt;span style=&quot;font-size: 20px;&quot;&gt;private&lt;/span&gt;&lt;/span&gt;" style="rounded=1;whiteSpace=wrap;html=1;arcSize=50;fontSize=20;fontStyle=1" parent="1" vertex="1">
                    <mxGeometry x="2251.5" y="2300" width="102" height="60" as="geometry"/>
                </mxCell>
                <mxCell id="146" value="" style="rounded=1;whiteSpace=wrap;html=1;fontSize=20;arcSize=4;fillColor=default;fontStyle=1" parent="1" vertex="1">
                    <mxGeometry x="1965" y="2540" width="640" height="400" as="geometry"/>
                </mxCell>
                <mxCell id="147" value="memberDecl" style="text;html=1;align=center;verticalAlign=middle;resizable=0;points=[];autosize=1;strokeColor=none;fillColor=none;fontSize=20;fontStyle=1" parent="1" vertex="1">
                    <mxGeometry x="1984" y="2551" width="130" height="28" as="geometry"/>
                </mxCell>
                <mxCell id="151" value="" style="group;fontSize=20;fontStyle=1" parent="1" vertex="1" connectable="0">
                    <mxGeometry x="2010" y="2670" width="240" height="120" as="geometry"/>
                </mxCell>
                <mxCell id="152" value="" style="triangle;whiteSpace=wrap;html=1;rotation=-90;fontSize=20;fontStyle=1" parent="151" vertex="1">
                    <mxGeometry x="60" y="-60" width="120" height="240" as="geometry"/>
                </mxCell>
                <mxCell id="153" value="varDecl" style="text;html=1;strokeColor=none;fillColor=none;align=center;verticalAlign=middle;whiteSpace=wrap;rounded=0;fontSize=20;fontStyle=1" parent="151" vertex="1">
                    <mxGeometry x="85" y="55" width="70" height="40" as="geometry"/>
                </mxCell>
                <mxCell id="154" value="" style="group;fontSize=20;fontStyle=1" parent="1" vertex="1" connectable="0">
                    <mxGeometry x="2295" y="2670" width="240" height="120" as="geometry"/>
                </mxCell>
                <mxCell id="155" value="" style="triangle;whiteSpace=wrap;html=1;rotation=-90;fontSize=20;fontStyle=1" parent="154" vertex="1">
                    <mxGeometry x="60" y="-60" width="120" height="240" as="geometry"/>
                </mxCell>
                <mxCell id="156" value="funcDecl" style="text;html=1;strokeColor=none;fillColor=none;align=center;verticalAlign=middle;whiteSpace=wrap;rounded=0;fontSize=20;fontStyle=1" parent="154" vertex="1">
                    <mxGeometry x="85" y="55" width="70" height="40" as="geometry"/>
                </mxCell>
                <mxCell id="157" value="" style="rounded=1;whiteSpace=wrap;html=1;fontSize=20;arcSize=4;fillColor=default;fontStyle=1" parent="1" vertex="1">
                    <mxGeometry x="1680" y="3060" width="640" height="400" as="geometry"/>
                </mxCell>
                <mxCell id="158" value="&lt;span&gt;funcDecl&lt;/span&gt;" style="text;html=1;align=center;verticalAlign=middle;resizable=0;points=[];autosize=1;strokeColor=none;fillColor=none;fontSize=20;fontStyle=1" parent="1" vertex="1">
                    <mxGeometry x="1716" y="3071" width="94" height="28" as="geometry"/>
                </mxCell>
                <mxCell id="162" value="" style="group;fontSize=20;fontStyle=1" parent="1" vertex="1" connectable="0">
                    <mxGeometry x="1880" y="3270" width="240" height="120" as="geometry"/>
                </mxCell>
                <mxCell id="163" value="" style="triangle;whiteSpace=wrap;html=1;rotation=-90;fontSize=20;fontStyle=1" parent="162" vertex="1">
                    <mxGeometry x="60" y="-60" width="120" height="240" as="geometry"/>
                </mxCell>
                <mxCell id="164" value="fparamList" style="text;html=1;strokeColor=none;fillColor=none;align=center;verticalAlign=middle;whiteSpace=wrap;rounded=0;fontSize=20;fontStyle=1" parent="162" vertex="1">
                    <mxGeometry x="85" y="55" width="70" height="40" as="geometry"/>
                </mxCell>
                <mxCell id="168" style="edgeStyle=none;html=1;exitX=0.25;exitY=1;exitDx=0;exitDy=0;entryX=0.5;entryY=0;entryDx=0;entryDy=0;fontSize=20;strokeColor=default;fontStyle=1" parent="1" source="165" target="166" edge="1">
                    <mxGeometry relative="1" as="geometry"/>
                </mxCell>
                <mxCell id="169" style="edgeStyle=none;html=1;exitX=0.5;exitY=1;exitDx=0;exitDy=0;entryX=1;entryY=0.5;entryDx=0;entryDy=0;fontSize=20;strokeColor=default;fontStyle=1" parent="1" source="165" target="163" edge="1">
                    <mxGeometry relative="1" as="geometry"/>
                </mxCell>
                <mxCell id="170" style="edgeStyle=none;html=1;exitX=0.75;exitY=1;exitDx=0;exitDy=0;entryX=0.5;entryY=0;entryDx=0;entryDy=0;fontSize=20;strokeColor=default;fontStyle=1" parent="1" source="165" target="167" edge="1">
                    <mxGeometry relative="1" as="geometry"/>
                </mxCell>
                <mxCell id="165" value="funcDecl" style="rounded=1;whiteSpace=wrap;html=1;arcSize=50;fontSize=20;fontStyle=1" parent="1" vertex="1">
                    <mxGeometry x="1915" y="3140" width="160" height="60" as="geometry"/>
                </mxCell>
                <mxCell id="166" value="&lt;font style=&quot;font-size: 20px&quot;&gt;&lt;span style=&quot;font-size: 20px;&quot;&gt;id&lt;/span&gt;&lt;/font&gt;" style="rounded=1;whiteSpace=wrap;html=1;arcSize=50;fontSize=20;fontStyle=1" parent="1" vertex="1">
                    <mxGeometry x="1761.5" y="3290" width="60" height="60" as="geometry"/>
                </mxCell>
                <mxCell id="167" value="&lt;font style=&quot;font-size: 20px&quot;&gt;&lt;span style=&quot;font-size: 20px&quot;&gt;type&lt;/span&gt;&lt;/font&gt;" style="rounded=1;whiteSpace=wrap;html=1;arcSize=50;fontSize=20;fontStyle=1" parent="1" vertex="1">
                    <mxGeometry x="2160" y="3280" width="60" height="60" as="geometry"/>
                </mxCell>
                <mxCell id="171" value="" style="rounded=1;whiteSpace=wrap;html=1;fontSize=20;arcSize=4;fillColor=default;fontStyle=1" parent="1" vertex="1">
                    <mxGeometry x="2420" y="3050" width="640" height="400" as="geometry"/>
                </mxCell>
                <mxCell id="172" value="&lt;span&gt;varDecl&lt;/span&gt;" style="text;html=1;align=center;verticalAlign=middle;resizable=0;points=[];autosize=1;strokeColor=none;fillColor=none;fontSize=20;fontStyle=1" parent="1" vertex="1">
                    <mxGeometry x="2462" y="3061" width="82" height="28" as="geometry"/>
                </mxCell>
                <mxCell id="173" value="" style="group;fontSize=20;fontStyle=1" parent="1" vertex="1" connectable="0">
                    <mxGeometry x="2800" y="3240" width="240" height="120" as="geometry"/>
                </mxCell>
                <mxCell id="174" value="" style="triangle;whiteSpace=wrap;html=1;rotation=-90;fontSize=20;fontStyle=1" parent="173" vertex="1">
                    <mxGeometry x="60" y="-60" width="120" height="240" as="geometry"/>
                </mxCell>
                <mxCell id="175" value="dimList" style="text;html=1;strokeColor=none;fillColor=none;align=center;verticalAlign=middle;whiteSpace=wrap;rounded=0;fontSize=20;fontStyle=1" parent="173" vertex="1">
                    <mxGeometry x="85" y="55" width="70" height="40" as="geometry"/>
                </mxCell>
                <mxCell id="176" style="edgeStyle=none;html=1;exitX=0.25;exitY=1;exitDx=0;exitDy=0;entryX=0.5;entryY=0;entryDx=0;entryDy=0;fontSize=20;strokeColor=default;fontStyle=1" parent="1" source="179" target="180" edge="1">
                    <mxGeometry relative="1" as="geometry"/>
                </mxCell>
                <mxCell id="183" style="edgeStyle=none;html=1;exitX=0.5;exitY=1;exitDx=0;exitDy=0;entryX=0.5;entryY=0;entryDx=0;entryDy=0;fontSize=20;strokeColor=default;fontStyle=1" parent="1" source="179" target="181" edge="1">
                    <mxGeometry relative="1" as="geometry"/>
                </mxCell>
                <mxCell id="184" style="edgeStyle=none;html=1;exitX=0.75;exitY=1;exitDx=0;exitDy=0;entryX=1;entryY=0.5;entryDx=0;entryDy=0;fontSize=20;strokeColor=default;fontStyle=1" parent="1" source="179" target="174" edge="1">
                    <mxGeometry relative="1" as="geometry"/>
                </mxCell>
                <mxCell id="179" value="varDecl" style="rounded=1;whiteSpace=wrap;html=1;arcSize=50;fontSize=20;fontStyle=1" parent="1" vertex="1">
                    <mxGeometry x="2655" y="3130" width="160" height="60" as="geometry"/>
                </mxCell>
                <mxCell id="180" value="&lt;font style=&quot;font-size: 20px&quot;&gt;&lt;span style=&quot;font-size: 20px;&quot;&gt;id&lt;/span&gt;&lt;/font&gt;" style="rounded=1;whiteSpace=wrap;html=1;arcSize=50;fontSize=20;fontStyle=1" parent="1" vertex="1">
                    <mxGeometry x="2501.5" y="3280" width="60" height="60" as="geometry"/>
                </mxCell>
                <mxCell id="181" value="&lt;font style=&quot;font-size: 20px&quot;&gt;&lt;span style=&quot;font-size: 20px&quot;&gt;type&lt;/span&gt;&lt;/font&gt;" style="rounded=1;whiteSpace=wrap;html=1;arcSize=50;fontSize=20;fontStyle=1" parent="1" vertex="1">
                    <mxGeometry x="2690" y="3280" width="60" height="60" as="geometry"/>
                </mxCell>
                <mxCell id="222" value="" style="rounded=1;whiteSpace=wrap;html=1;fontSize=20;arcSize=4;fillColor=default;fontStyle=1" parent="1" vertex="1">
                    <mxGeometry x="1710" y="3590" width="640" height="400" as="geometry"/>
                </mxCell>
                <mxCell id="223" value="&lt;span&gt;fparamList&lt;/span&gt;" style="text;html=1;align=center;verticalAlign=middle;resizable=0;points=[];autosize=1;strokeColor=none;fillColor=none;fontSize=20;fontStyle=1" parent="1" vertex="1">
                    <mxGeometry x="1738" y="3601" width="112" height="28" as="geometry"/>
                </mxCell>
                <mxCell id="224" value="" style="group;fontSize=20;fontStyle=1" parent="1" vertex="1" connectable="0">
                    <mxGeometry x="1768" y="3790" width="240" height="120" as="geometry"/>
                </mxCell>
                <mxCell id="225" value="" style="triangle;whiteSpace=wrap;html=1;rotation=-90;fontSize=20;fontStyle=1" parent="224" vertex="1">
                    <mxGeometry x="60" y="-60" width="120" height="240" as="geometry"/>
                </mxCell>
                <mxCell id="226" value="fparam" style="text;html=1;strokeColor=none;fillColor=none;align=center;verticalAlign=middle;whiteSpace=wrap;rounded=0;fontSize=20;fontStyle=1" parent="224" vertex="1">
                    <mxGeometry x="85" y="55" width="70" height="40" as="geometry"/>
                </mxCell>
                <mxCell id="227" style="edgeStyle=none;html=1;exitX=0.25;exitY=1;exitDx=0;exitDy=0;entryX=1;entryY=0.5;entryDx=0;entryDy=0;fontSize=20;strokeColor=default;fontStyle=1" parent="1" source="229" target="225" edge="1">
                    <mxGeometry relative="1" as="geometry"/>
                </mxCell>
                <mxCell id="228" style="edgeStyle=none;html=1;exitX=0.75;exitY=1;exitDx=0;exitDy=0;entryX=1;entryY=0.5;entryDx=0;entryDy=0;fontSize=20;strokeColor=default;fontStyle=1" parent="1" source="229" target="236" edge="1">
                    <mxGeometry relative="1" as="geometry"/>
                </mxCell>
                <mxCell id="229" value="fparamList" style="rounded=1;whiteSpace=wrap;html=1;arcSize=50;fontSize=20;fontStyle=1" parent="1" vertex="1">
                    <mxGeometry x="1945" y="3670" width="160" height="60" as="geometry"/>
                </mxCell>
                <mxCell id="230" value="" style="rounded=1;whiteSpace=wrap;html=1;fontSize=20;arcSize=4;fillColor=default;fontStyle=1" parent="1" vertex="1">
                    <mxGeometry x="2430" y="3580" width="640" height="400" as="geometry"/>
                </mxCell>
                <mxCell id="231" value="&lt;span&gt;dimList&lt;/span&gt;" style="text;html=1;align=center;verticalAlign=middle;resizable=0;points=[];autosize=1;strokeColor=none;fillColor=none;fontSize=20;fontStyle=1" parent="1" vertex="1">
                    <mxGeometry x="2473" y="3591" width="81" height="28" as="geometry"/>
                </mxCell>
                <mxCell id="232" style="edgeStyle=none;html=1;exitX=0.75;exitY=1;exitDx=0;exitDy=0;entryX=0.5;entryY=0;entryDx=0;entryDy=0;fontSize=20;strokeColor=default;fontStyle=1" parent="1" source="234" target="241" edge="1">
                    <mxGeometry relative="1" as="geometry">
                        <mxPoint x="2930" y="3770" as="targetPoint"/>
                    </mxGeometry>
                </mxCell>
                <mxCell id="233" style="edgeStyle=none;html=1;exitX=0.25;exitY=1;exitDx=0;exitDy=0;entryX=0.5;entryY=0;entryDx=0;entryDy=0;fontSize=20;strokeColor=default;fontStyle=1" parent="1" source="234" target="240" edge="1">
                    <mxGeometry relative="1" as="geometry">
                        <mxPoint x="2630" y="3780" as="targetPoint"/>
                    </mxGeometry>
                </mxCell>
                <mxCell id="234" value="dimList" style="rounded=1;whiteSpace=wrap;html=1;arcSize=50;fontSize=20;fontStyle=1" parent="1" vertex="1">
                    <mxGeometry x="2665" y="3660" width="160" height="60" as="geometry"/>
                </mxCell>
                <mxCell id="235" value="" style="group;fontSize=20;fontStyle=1" parent="1" vertex="1" connectable="0">
                    <mxGeometry x="2075" y="3790" width="240" height="120" as="geometry"/>
                </mxCell>
                <mxCell id="236" value="" style="triangle;whiteSpace=wrap;html=1;rotation=-90;fontSize=20;fontStyle=1" parent="235" vertex="1">
                    <mxGeometry x="60" y="-60" width="120" height="240" as="geometry"/>
                </mxCell>
                <mxCell id="237" value="fparam" style="text;html=1;strokeColor=none;fillColor=none;align=center;verticalAlign=middle;whiteSpace=wrap;rounded=0;fontSize=20;fontStyle=1" parent="235" vertex="1">
                    <mxGeometry x="85" y="55" width="70" height="40" as="geometry"/>
                </mxCell>
                <mxCell id="238" value="&lt;font style=&quot;font-size: 20px&quot;&gt;&lt;span style=&quot;font-size: 20px;&quot;&gt;...&lt;/span&gt;&lt;/font&gt;" style="text;html=1;align=center;verticalAlign=middle;resizable=0;points=[];autosize=1;strokeColor=none;fillColor=none;fontSize=20;fontStyle=1" parent="1" vertex="1">
                    <mxGeometry x="2027" y="3881" width="27" height="28" as="geometry"/>
                </mxCell>
                <mxCell id="239" value="&lt;font style=&quot;font-size: 20px&quot;&gt;&lt;span style=&quot;font-size: 20px;&quot;&gt;ε&lt;/span&gt;&lt;/font&gt;" style="rounded=1;whiteSpace=wrap;html=1;arcSize=50;fontSize=20;fontStyle=1" parent="1" vertex="1">
                    <mxGeometry x="2970" y="3660" width="60" height="60" as="geometry"/>
                </mxCell>
                <mxCell id="240" value="&lt;font style=&quot;font-size: 20px&quot;&gt;&lt;span style=&quot;font-size: 20px&quot;&gt;num&lt;/span&gt;&lt;/font&gt;" style="rounded=1;whiteSpace=wrap;html=1;arcSize=50;fontSize=20;fontStyle=1" parent="1" vertex="1">
                    <mxGeometry x="2645" y="3800" width="60" height="60" as="geometry"/>
                </mxCell>
                <mxCell id="241" value="&lt;font style=&quot;font-size: 20px&quot;&gt;&lt;span style=&quot;font-size: 20px&quot;&gt;num&lt;/span&gt;&lt;/font&gt;" style="rounded=1;whiteSpace=wrap;html=1;arcSize=50;fontSize=20;fontStyle=1" parent="1" vertex="1">
                    <mxGeometry x="2810" y="3800" width="60" height="60" as="geometry"/>
                </mxCell>
                <mxCell id="242" value="&lt;font style=&quot;font-size: 20px&quot;&gt;&lt;span style=&quot;font-size: 20px;&quot;&gt;...&lt;/span&gt;&lt;/font&gt;" style="text;html=1;align=center;verticalAlign=middle;resizable=0;points=[];autosize=1;strokeColor=none;fillColor=none;fontSize=20;fontStyle=1" parent="1" vertex="1">
                    <mxGeometry x="2737" y="3821" width="27" height="28" as="geometry"/>
                </mxCell>
                <mxCell id="290" value="" style="group;fontSize=20;fontStyle=1" parent="1" vertex="1" connectable="0">
                    <mxGeometry x="2067" y="4270" width="240" height="120" as="geometry"/>
                </mxCell>
                <mxCell id="291" value="" style="triangle;whiteSpace=wrap;html=1;rotation=-90;fontSize=20;fontStyle=1" parent="290" vertex="1">
                    <mxGeometry x="60" y="-60" width="120" height="240" as="geometry"/>
                </mxCell>
                <mxCell id="292" value="dimList" style="text;html=1;strokeColor=none;fillColor=none;align=center;verticalAlign=middle;whiteSpace=wrap;rounded=0;fontSize=20;fontStyle=1" parent="290" vertex="1">
                    <mxGeometry x="85" y="55" width="70" height="40" as="geometry"/>
                </mxCell>
                <mxCell id="293" style="edgeStyle=none;html=1;exitX=0.75;exitY=1;exitDx=0;exitDy=0;entryX=1;entryY=0.5;entryDx=0;entryDy=0;fontSize=15;fontStyle=1" parent="1" source="280" target="291" edge="1">
                    <mxGeometry relative="1" as="geometry"/>
                </mxCell>
                <mxCell id="294" value="&lt;font style=&quot;font-size: 20px&quot;&gt;&lt;span style=&quot;font-size: 20px;&quot;&gt;ε&lt;/span&gt;&lt;/font&gt;" style="rounded=1;whiteSpace=wrap;html=1;arcSize=50;fontSize=20;fontStyle=1" parent="1" vertex="1">
                    <mxGeometry x="2251.5" y="4170" width="60" height="60" as="geometry"/>
                </mxCell>
                <mxCell id="330" value="&lt;span&gt;assignStat&lt;/span&gt;" style="rounded=1;whiteSpace=wrap;html=1;arcSize=50;fontSize=20;fontStyle=1" parent="1" vertex="1">
                    <mxGeometry x="-1556" y="1603" width="160" height="60" as="geometry"/>
                </mxCell>
                <mxCell id="299" value="&lt;span&gt;assignStat&lt;/span&gt;" style="rounded=1;whiteSpace=wrap;html=1;arcSize=50;fontSize=20;fontStyle=1" parent="1" vertex="1">
                    <mxGeometry x="-1972" y="2124" width="160" height="60" as="geometry"/>
                </mxCell>
                <mxCell id="320" value="" style="group;fontSize=20;fontStyle=1" parent="1" vertex="1" connectable="0">
                    <mxGeometry x="-2152" y="2274" width="240" height="120" as="geometry"/>
                </mxCell>
                <mxCell id="321" value="" style="triangle;whiteSpace=wrap;html=1;rotation=-90;fontSize=20;fontStyle=1" parent="320" vertex="1">
                    <mxGeometry x="60" y="-60" width="120" height="240" as="geometry"/>
                </mxCell>
                <mxCell id="322" value="variable" style="text;html=1;strokeColor=none;fillColor=none;align=center;verticalAlign=middle;whiteSpace=wrap;rounded=0;fontSize=20;fontStyle=1" parent="320" vertex="1">
                    <mxGeometry x="86" y="55" width="70" height="40" as="geometry"/>
                </mxCell>
                <mxCell id="324" value="" style="group;fontSize=20;fontStyle=1" parent="1" vertex="1" connectable="0">
                    <mxGeometry x="-1894" y="2274" width="240" height="120" as="geometry"/>
                </mxCell>
                <mxCell id="325" value="" style="triangle;whiteSpace=wrap;html=1;rotation=-90;fontSize=20;fontStyle=1" parent="324" vertex="1">
                    <mxGeometry x="60" y="-60" width="120" height="240" as="geometry"/>
                </mxCell>
                <mxCell id="326" value="expr" style="text;html=1;strokeColor=none;fillColor=none;align=center;verticalAlign=middle;whiteSpace=wrap;rounded=0;fontSize=20;fontStyle=1" parent="324" vertex="1">
                    <mxGeometry x="85" y="55" width="70" height="40" as="geometry"/>
                </mxCell>
                <mxCell id="328" style="edgeStyle=none;html=1;exitX=0.25;exitY=1;exitDx=0;exitDy=0;entryX=1;entryY=0.5;entryDx=0;entryDy=0;fontStyle=1" parent="1" source="299" target="321" edge="1">
                    <mxGeometry relative="1" as="geometry"/>
                </mxCell>
                <mxCell id="329" style="edgeStyle=none;html=1;exitX=0.75;exitY=1;exitDx=0;exitDy=0;entryX=1;entryY=0.5;entryDx=0;entryDy=0;fontStyle=1" parent="1" source="299" target="325" edge="1">
                    <mxGeometry relative="1" as="geometry"/>
                </mxCell>
                <mxCell id="347" style="edgeStyle=none;html=1;exitX=0.75;exitY=1;exitDx=0;exitDy=0;entryX=1;entryY=0.5;entryDx=0;entryDy=0;fontStyle=1" parent="1" source="334" target="345" edge="1">
                    <mxGeometry relative="1" as="geometry"/>
                </mxCell>
                <mxCell id="334" value="&lt;span&gt;ifStat&lt;/span&gt;" style="rounded=1;whiteSpace=wrap;html=1;arcSize=50;fontSize=20;fontStyle=1" parent="1" vertex="1">
                    <mxGeometry x="-2857" y="4401" width="160" height="60" as="geometry"/>
                </mxCell>
                <mxCell id="335" value="" style="group;fontSize=20;fontStyle=1" parent="1" vertex="1" connectable="0">
                    <mxGeometry x="-3155" y="4561" width="240" height="120" as="geometry"/>
                </mxCell>
                <mxCell id="336" value="" style="triangle;whiteSpace=wrap;html=1;rotation=-90;fontSize=20;fontStyle=1" parent="335" vertex="1">
                    <mxGeometry x="60" y="-60" width="120" height="240" as="geometry"/>
                </mxCell>
                <mxCell id="337" value="rel" style="text;html=1;strokeColor=none;fillColor=none;align=center;verticalAlign=middle;whiteSpace=wrap;rounded=0;fontSize=20;fontStyle=1" parent="335" vertex="1">
                    <mxGeometry x="85" y="55" width="70" height="40" as="geometry"/>
                </mxCell>
                <mxCell id="338" value="" style="group;fontSize=20;fontStyle=1" parent="1" vertex="1" connectable="0">
                    <mxGeometry x="-2897" y="4561" width="240" height="120" as="geometry"/>
                </mxCell>
                <mxCell id="339" value="" style="triangle;whiteSpace=wrap;html=1;rotation=-90;fontSize=20;fontStyle=1" parent="338" vertex="1">
                    <mxGeometry x="60" y="-60" width="120" height="240" as="geometry"/>
                </mxCell>
                <mxCell id="340" value="statBlock" style="text;html=1;strokeColor=none;fillColor=none;align=center;verticalAlign=middle;whiteSpace=wrap;rounded=0;fontSize=20;fontStyle=1" parent="338" vertex="1">
                    <mxGeometry x="85" y="55" width="70" height="40" as="geometry"/>
                </mxCell>
                <mxCell id="341" style="edgeStyle=none;html=1;exitX=0.25;exitY=1;exitDx=0;exitDy=0;entryX=1;entryY=0.5;entryDx=0;entryDy=0;fontStyle=1" parent="1" source="334" target="336" edge="1">
                    <mxGeometry relative="1" as="geometry"/>
                </mxCell>
                <mxCell id="342" style="edgeStyle=none;html=1;exitX=0.5;exitY=1;exitDx=0;exitDy=0;entryX=1;entryY=0.5;entryDx=0;entryDy=0;fontStyle=1" parent="1" source="334" target="339" edge="1">
                    <mxGeometry relative="1" as="geometry"/>
                </mxCell>
                <mxCell id="344" value="" style="group;fontSize=20;fontStyle=1" parent="1" vertex="1" connectable="0">
                    <mxGeometry x="-2631.5" y="4561" width="240" height="120" as="geometry"/>
                </mxCell>
                <mxCell id="345" value="" style="triangle;whiteSpace=wrap;html=1;rotation=-90;fontSize=20;fontStyle=1" parent="344" vertex="1">
                    <mxGeometry x="60" y="-60" width="120" height="240" as="geometry"/>
                </mxCell>
                <mxCell id="346" value="statBlock" style="text;html=1;strokeColor=none;fillColor=none;align=center;verticalAlign=middle;whiteSpace=wrap;rounded=0;fontSize=20;fontStyle=1" parent="344" vertex="1">
                    <mxGeometry x="85" y="55" width="70" height="40" as="geometry"/>
                </mxCell>
                <mxCell id="349" value="&lt;span&gt;whileStat&lt;/span&gt;" style="rounded=1;whiteSpace=wrap;html=1;arcSize=50;fontSize=20;fontStyle=1" parent="1" vertex="1">
                    <mxGeometry x="-3588" y="4417" width="160" height="60" as="geometry"/>
                </mxCell>
                <mxCell id="350" value="" style="group;fontSize=20;fontStyle=1" parent="1" vertex="1" connectable="0">
                    <mxGeometry x="-3741" y="4679" width="240" height="120" as="geometry"/>
                </mxCell>
                <mxCell id="351" value="" style="triangle;whiteSpace=wrap;html=1;rotation=-90;fontSize=20;fontStyle=1" parent="350" vertex="1">
                    <mxGeometry x="33" y="-172" width="120" height="240" as="geometry"/>
                </mxCell>
                <mxCell id="352" value="rel" style="text;html=1;strokeColor=none;fillColor=none;align=center;verticalAlign=middle;whiteSpace=wrap;rounded=0;fontSize=20;fontStyle=1" parent="350" vertex="1">
                    <mxGeometry x="58" y="-57" width="70" height="40" as="geometry"/>
                </mxCell>
                <mxCell id="353" value="" style="group;fontSize=20;fontStyle=1" parent="1" vertex="1" connectable="0">
                    <mxGeometry x="-3510" y="4567" width="240" height="120" as="geometry"/>
                </mxCell>
                <mxCell id="354" value="" style="triangle;whiteSpace=wrap;html=1;rotation=-90;fontSize=20;fontStyle=1" parent="353" vertex="1">
                    <mxGeometry x="60" y="-60" width="120" height="240" as="geometry"/>
                </mxCell>
                <mxCell id="355" value="statBlock" style="text;html=1;strokeColor=none;fillColor=none;align=center;verticalAlign=middle;whiteSpace=wrap;rounded=0;fontSize=20;fontStyle=1" parent="353" vertex="1">
                    <mxGeometry x="85" y="55" width="70" height="40" as="geometry"/>
                </mxCell>
                <mxCell id="356" style="edgeStyle=none;html=1;exitX=0.25;exitY=1;exitDx=0;exitDy=0;entryX=1;entryY=0.5;entryDx=0;entryDy=0;fontStyle=1" parent="1" source="349" target="351" edge="1">
                    <mxGeometry relative="1" as="geometry"/>
                </mxCell>
                <mxCell id="357" style="edgeStyle=none;html=1;exitX=0.75;exitY=1;exitDx=0;exitDy=0;entryX=1;entryY=0.5;entryDx=0;entryDy=0;fontStyle=1" parent="1" source="349" target="354" edge="1">
                    <mxGeometry relative="1" as="geometry"/>
                </mxCell>
                <mxCell id="408" value="" style="rounded=1;whiteSpace=wrap;html=1;fontSize=20;arcSize=4;fillColor=default;fontStyle=1" parent="1" vertex="1">
                    <mxGeometry x="-1492" y="202" width="1106" height="400" as="geometry"/>
                </mxCell>
                <mxCell id="409" value="&lt;span&gt;funcDef&lt;/span&gt;" style="text;html=1;align=center;verticalAlign=middle;resizable=0;points=[];autosize=1;strokeColor=none;fillColor=none;fontSize=20;fontStyle=1" parent="1" vertex="1">
                    <mxGeometry x="-1450" y="213" width="84" height="28" as="geometry"/>
                </mxCell>
                <mxCell id="410" style="edgeStyle=none;html=1;exitX=0.25;exitY=1;exitDx=0;exitDy=0;entryX=1;entryY=0.25;entryDx=0;entryDy=0;fontSize=20;strokeColor=default;fontStyle=1" parent="1" source="413" target="419" edge="1">
                    <mxGeometry relative="1" as="geometry">
                        <mxPoint x="-1352" y="412" as="targetPoint"/>
                    </mxGeometry>
                </mxCell>
                <mxCell id="411" style="edgeStyle=none;html=1;exitX=0.5;exitY=1;exitDx=0;exitDy=0;entryX=1;entryY=0.5;entryDx=0;entryDy=0;fontSize=20;strokeColor=default;fontStyle=1" parent="1" source="413" target="414" edge="1">
                    <mxGeometry relative="1" as="geometry"/>
                </mxCell>
                <mxCell id="412" style="edgeStyle=none;html=1;exitX=0.75;exitY=1;exitDx=0;exitDy=0;entryX=0.5;entryY=0;entryDx=0;entryDy=0;fontSize=20;strokeColor=default;fontStyle=1" parent="1" source="413" target="420" edge="1">
                    <mxGeometry relative="1" as="geometry">
                        <mxPoint x="-762" y="412" as="targetPoint"/>
                    </mxGeometry>
                </mxCell>
                <mxCell id="426" style="edgeStyle=none;html=1;exitX=0.75;exitY=1;exitDx=0;exitDy=0;entryX=1;entryY=0.5;entryDx=0;entryDy=0;fontStyle=1" parent="1" source="413" target="424" edge="1">
                    <mxGeometry relative="1" as="geometry"/>
                </mxCell>
                <mxCell id="413" value="funcDef" style="rounded=1;whiteSpace=wrap;html=1;arcSize=50;fontSize=20;fontStyle=1" parent="1" vertex="1">
                    <mxGeometry x="-1005" y="247" width="160" height="60" as="geometry"/>
                </mxCell>
                <mxCell id="419" value="&lt;font style=&quot;font-size: 20px&quot;&gt;&lt;span style=&quot;font-size: 20px;&quot;&gt;id&lt;/span&gt;&lt;/font&gt;" style="rounded=1;whiteSpace=wrap;html=1;arcSize=50;fontSize=20;fontStyle=1" parent="1" vertex="1">
                    <mxGeometry x="-1392" y="442" width="60" height="60" as="geometry"/>
                </mxCell>
                <mxCell id="420" value="&lt;font style=&quot;font-size: 20px&quot;&gt;&lt;span style=&quot;font-size: 20px&quot;&gt;type&lt;/span&gt;&lt;/font&gt;" style="rounded=1;whiteSpace=wrap;html=1;arcSize=50;fontSize=20;fontStyle=1" parent="1" vertex="1">
                    <mxGeometry x="-908" y="420" width="60" height="60" as="geometry"/>
                </mxCell>
                <mxCell id="422" value="" style="group;fontStyle=1" parent="1" vertex="1" connectable="0">
                    <mxGeometry x="-1172" y="412" width="240" height="120" as="geometry"/>
                </mxCell>
                <mxCell id="414" value="" style="triangle;whiteSpace=wrap;html=1;rotation=-90;fontSize=20;fontStyle=1" parent="422" vertex="1">
                    <mxGeometry x="60" y="-60" width="120" height="240" as="geometry"/>
                </mxCell>
                <mxCell id="415" value="fparamList" style="text;html=1;strokeColor=none;fillColor=none;align=center;verticalAlign=middle;whiteSpace=wrap;rounded=0;fontSize=20;fontStyle=1" parent="422" vertex="1">
                    <mxGeometry x="85" y="55" width="70" height="40" as="geometry"/>
                </mxCell>
                <mxCell id="424" value="" style="triangle;whiteSpace=wrap;html=1;rotation=-90;fontSize=20;fontStyle=1" parent="1" vertex="1">
                    <mxGeometry x="-670" y="300" width="120" height="344" as="geometry"/>
                </mxCell>
                <mxCell id="425" value="statBlock" style="text;html=1;strokeColor=none;fillColor=none;align=center;verticalAlign=middle;whiteSpace=wrap;rounded=0;fontSize=20;fontStyle=1" parent="1" vertex="1">
                    <mxGeometry x="-644" y="477" width="70" height="40" as="geometry"/>
                </mxCell>
                <mxCell id="437" style="edgeStyle=none;html=1;exitX=0.25;exitY=1;exitDx=0;exitDy=0;entryX=1;entryY=0.5;entryDx=0;entryDy=0;fontStyle=1" parent="1" source="429" target="435" edge="1">
                    <mxGeometry relative="1" as="geometry"/>
                </mxCell>
                <mxCell id="438" style="edgeStyle=none;html=1;exitX=0.75;exitY=1;exitDx=0;exitDy=0;entryX=1;entryY=0.5;entryDx=0;entryDy=0;fontStyle=1" parent="1" source="429" target="431" edge="1">
                    <mxGeometry relative="1" as="geometry"/>
                </mxCell>
                <mxCell id="429" value="varDeclOrStatmentList" style="rounded=1;whiteSpace=wrap;html=1;arcSize=50;fontSize=20;fontStyle=1" parent="1" vertex="1">
                    <mxGeometry x="-1240" y="690" width="249" height="60" as="geometry"/>
                </mxCell>
                <mxCell id="433" value="" style="group;fontStyle=1" parent="1" vertex="1" connectable="0">
                    <mxGeometry x="-1107" y="829" width="344" height="120" as="geometry"/>
                </mxCell>
                <mxCell id="431" value="" style="triangle;whiteSpace=wrap;html=1;rotation=-90;fontSize=20;fontStyle=1" parent="433" vertex="1">
                    <mxGeometry x="112" y="-112" width="120" height="344" as="geometry"/>
                </mxCell>
                <mxCell id="432" value="varDeclOrStatement" style="text;html=1;strokeColor=none;fillColor=none;align=center;verticalAlign=middle;whiteSpace=wrap;rounded=0;fontSize=20;fontStyle=1" parent="433" vertex="1">
                    <mxGeometry x="140" y="62" width="70" height="40" as="geometry"/>
                </mxCell>
                <mxCell id="439" value="&lt;font style=&quot;font-size: 20px&quot;&gt;&lt;span style=&quot;font-size: 20px;&quot;&gt;...&lt;/span&gt;&lt;/font&gt;" style="text;html=1;align=center;verticalAlign=middle;resizable=0;points=[];autosize=1;strokeColor=none;fillColor=none;fontSize=20;fontStyle=1" parent="433" vertex="1">
                    <mxGeometry x="-36" y="68" width="27" height="28" as="geometry"/>
                </mxCell>
                <mxCell id="434" value="" style="group;fontStyle=1" parent="1" vertex="1" connectable="0">
                    <mxGeometry x="-1487" y="830" width="344" height="120" as="geometry"/>
                </mxCell>
                <mxCell id="435" value="" style="triangle;whiteSpace=wrap;html=1;rotation=-90;fontSize=20;fontStyle=1" parent="434" vertex="1">
                    <mxGeometry x="112" y="-112" width="120" height="344" as="geometry"/>
                </mxCell>
                <mxCell id="436" value="varDeclOrStatement" style="text;html=1;strokeColor=none;fillColor=none;align=center;verticalAlign=middle;whiteSpace=wrap;rounded=0;fontSize=20;fontStyle=1" parent="434" vertex="1">
                    <mxGeometry x="140" y="62" width="70" height="40" as="geometry"/>
                </mxCell>
                <mxCell id="442" value="statement" style="rounded=1;whiteSpace=wrap;html=1;arcSize=50;fontSize=20;fontStyle=1" parent="1" vertex="1">
                    <mxGeometry x="-1194" y="1200" width="249" height="60" as="geometry"/>
                </mxCell>
                <mxCell id="450" value="varDecl" style="rounded=1;whiteSpace=wrap;html=1;arcSize=50;fontSize=20;fontStyle=1" parent="1" vertex="1">
                    <mxGeometry x="-1523" y="1203" width="249" height="60" as="geometry"/>
                </mxCell>
                <mxCell id="453" value="varDeclOrStatment" style="text;html=1;align=center;verticalAlign=middle;resizable=0;points=[];autosize=1;strokeColor=none;fillColor=none;fontSize=20;fontStyle=1" parent="1" vertex="1">
                    <mxGeometry x="-1560" y="1103" width="191" height="28" as="geometry"/>
                </mxCell>
                <mxCell id="456" value="" style="group;fontSize=20;fontStyle=1" parent="1" vertex="1" connectable="0">
                    <mxGeometry x="-1417" y="2795" width="240" height="229.75" as="geometry"/>
                </mxCell>
                <mxCell id="457" value="" style="triangle;whiteSpace=wrap;html=1;rotation=-90;fontSize=20;fontStyle=1" parent="456" vertex="1">
                    <mxGeometry x="-303" y="258.25" width="120" height="339.5" as="geometry"/>
                </mxCell>
                <mxCell id="458" value="varElement" style="text;html=1;strokeColor=none;fillColor=none;align=center;verticalAlign=middle;whiteSpace=wrap;rounded=0;fontSize=20;fontStyle=1" parent="456" vertex="1">
                    <mxGeometry x="-278" y="437" width="70" height="40" as="geometry"/>
                </mxCell>
                <mxCell id="465" value="" style="group;fontSize=20;fontStyle=1" parent="1" vertex="1" connectable="0">
                    <mxGeometry x="-1016" y="2795" width="240" height="229.75" as="geometry"/>
                </mxCell>
                <mxCell id="466" value="" style="triangle;whiteSpace=wrap;html=1;rotation=-90;fontSize=20;fontStyle=1" parent="465" vertex="1">
                    <mxGeometry x="-303" y="258.25" width="120" height="339.5" as="geometry"/>
                </mxCell>
                <mxCell id="467" value="varElement" style="text;html=1;strokeColor=none;fillColor=none;align=center;verticalAlign=middle;whiteSpace=wrap;rounded=0;fontSize=20;fontStyle=1" parent="465" vertex="1">
                    <mxGeometry x="-278" y="437" width="70" height="40" as="geometry"/>
                </mxCell>
                <mxCell id="479" style="edgeStyle=none;html=1;exitX=0.5;exitY=1;exitDx=0;exitDy=0;entryX=0.5;entryY=0;entryDx=0;entryDy=0;" parent="1" source="469" target="478" edge="1">
                    <mxGeometry relative="1" as="geometry"/>
                </mxCell>
                <mxCell id="469" value="&lt;span&gt;variable&lt;/span&gt;" style="rounded=1;whiteSpace=wrap;html=1;arcSize=50;fontSize=20;fontStyle=1" parent="1" vertex="1">
                    <mxGeometry x="-1457.24" y="2535" width="160" height="60" as="geometry"/>
                </mxCell>
                <mxCell id="472" style="edgeStyle=none;html=1;exitX=0.25;exitY=1;exitDx=0;exitDy=0;entryX=1;entryY=0.5;entryDx=0;entryDy=0;fontStyle=1" parent="1" source="469" target="470" edge="1">
                    <mxGeometry relative="1" as="geometry"/>
                </mxCell>
                <mxCell id="473" style="edgeStyle=none;html=1;exitX=0.75;exitY=1;exitDx=0;exitDy=0;entryX=1;entryY=0.5;entryDx=0;entryDy=0;fontStyle=1" parent="1" source="469" target="481" edge="1">
                    <mxGeometry relative="1" as="geometry">
                        <mxPoint x="-1165.9899999999998" y="2685" as="targetPoint"/>
                    </mxGeometry>
                </mxCell>
                <mxCell id="477" value="" style="group" parent="1" vertex="1" connectable="0">
                    <mxGeometry x="-1596.995" y="2697.995" width="160.75" height="120" as="geometry"/>
                </mxCell>
                <mxCell id="470" value="" style="triangle;whiteSpace=wrap;html=1;rotation=-90;fontSize=20;fontStyle=1" parent="477" vertex="1">
                    <mxGeometry x="20.375" y="-20.375" width="120" height="160.75" as="geometry"/>
                </mxCell>
                <mxCell id="471" value="var" style="text;html=1;strokeColor=none;fillColor=none;align=center;verticalAlign=middle;whiteSpace=wrap;rounded=0;fontSize=20;fontStyle=1" parent="477" vertex="1">
                    <mxGeometry x="47.74499999999989" y="62.99499999999989" width="70" height="40" as="geometry"/>
                </mxCell>
                <mxCell id="478" value="&lt;font style=&quot;font-size: 20px&quot;&gt;&lt;span style=&quot;font-size: 20px;&quot;&gt;id&lt;/span&gt;&lt;/font&gt;" style="rounded=1;whiteSpace=wrap;html=1;arcSize=50;fontSize=20;fontStyle=1" parent="1" vertex="1">
                    <mxGeometry x="-1411.49" y="2744" width="60" height="60" as="geometry"/>
                </mxCell>
                <mxCell id="483" value="" style="group" parent="1" vertex="1" connectable="0">
                    <mxGeometry x="-1306.99" y="2694" width="240" height="120" as="geometry"/>
                </mxCell>
                <mxCell id="481" value="" style="triangle;whiteSpace=wrap;html=1;rotation=-90;fontSize=20;fontStyle=1" parent="483" vertex="1">
                    <mxGeometry x="60" y="-60" width="120" height="240" as="geometry"/>
                </mxCell>
                <mxCell id="482" value="indexList" style="text;html=1;strokeColor=none;fillColor=none;align=center;verticalAlign=middle;whiteSpace=wrap;rounded=0;fontSize=20;fontStyle=1" parent="483" vertex="1">
                    <mxGeometry x="85" y="55" width="70" height="40" as="geometry"/>
                </mxCell>
                <mxCell id="455" value="&lt;span&gt;var&lt;/span&gt;" style="rounded=1;whiteSpace=wrap;html=1;arcSize=50;fontSize=20;fontStyle=1" parent="1" vertex="1">
                    <mxGeometry x="-1550.25" y="3013" width="160" height="60" as="geometry"/>
                </mxCell>
                <mxCell id="462" style="edgeStyle=none;html=1;exitX=0.25;exitY=1;exitDx=0;exitDy=0;entryX=1;entryY=0.5;entryDx=0;entryDy=0;fontStyle=1" parent="1" source="455" target="457" edge="1">
                    <mxGeometry relative="1" as="geometry"/>
                </mxCell>
                <mxCell id="463" style="edgeStyle=none;html=1;exitX=0.75;exitY=1;exitDx=0;exitDy=0;entryX=1;entryY=0.5;entryDx=0;entryDy=0;fontStyle=1" parent="1" source="455" target="466" edge="1">
                    <mxGeometry relative="1" as="geometry">
                        <mxPoint x="-1166.2500000000002" y="3251" as="targetPoint"/>
                    </mxGeometry>
                </mxCell>
                <mxCell id="468" value="&lt;font style=&quot;font-size: 20px&quot;&gt;&lt;span style=&quot;font-size: 20px;&quot;&gt;...&lt;/span&gt;&lt;/font&gt;" style="text;html=1;align=center;verticalAlign=middle;resizable=0;points=[];autosize=1;strokeColor=none;fillColor=none;fontSize=20;fontStyle=1" parent="1" vertex="1">
                    <mxGeometry x="-1476.25" y="3240" width="27" height="28" as="geometry"/>
                </mxCell>
                <mxCell id="497" value="&lt;span&gt;dataMember&lt;/span&gt;" style="rounded=1;whiteSpace=wrap;html=1;arcSize=50;fontSize=20;fontStyle=1" parent="1" vertex="1">
                    <mxGeometry x="-1494.25" y="3469.25" width="160" height="60" as="geometry"/>
                </mxCell>
                <mxCell id="498" style="edgeStyle=none;html=1;exitX=0.25;exitY=1;exitDx=0;exitDy=0;entryX=0.5;entryY=0;entryDx=0;entryDy=0;fontStyle=1" parent="1" source="497" target="501" edge="1">
                    <mxGeometry relative="1" as="geometry">
                        <mxPoint x="-1604" y="3619.250000000001" as="targetPoint"/>
                    </mxGeometry>
                </mxCell>
                <mxCell id="499" style="edgeStyle=none;html=1;exitX=0.75;exitY=1;exitDx=0;exitDy=0;entryX=1;entryY=0.5;entryDx=0;entryDy=0;fontStyle=1" parent="1" source="497" target="495" edge="1">
                    <mxGeometry relative="1" as="geometry">
                        <mxPoint x="-1110.2500000000002" y="3707.25" as="targetPoint"/>
                    </mxGeometry>
                </mxCell>
                <mxCell id="501" value="&lt;font style=&quot;font-size: 20px&quot;&gt;&lt;span style=&quot;font-size: 20px;&quot;&gt;id&lt;/span&gt;&lt;/font&gt;" style="rounded=1;whiteSpace=wrap;html=1;arcSize=50;fontSize=20;fontStyle=1" parent="1" vertex="1">
                    <mxGeometry x="-1570" y="3647" width="60" height="60" as="geometry"/>
                </mxCell>
                <mxCell id="502" value="" style="triangle;whiteSpace=wrap;html=1;rotation=-90;fontSize=20;fontStyle=1" parent="1" vertex="1">
                    <mxGeometry x="-942.5" y="3053.25" width="120" height="339.5" as="geometry"/>
                </mxCell>
                <mxCell id="503" value="arith&lt;br&gt;Expr" style="text;html=1;strokeColor=none;fillColor=none;align=center;verticalAlign=middle;whiteSpace=wrap;rounded=0;fontSize=20;fontStyle=1" parent="1" vertex="1">
                    <mxGeometry x="-917.5" y="3232" width="70" height="40" as="geometry"/>
                </mxCell>
                <mxCell id="504" value="" style="triangle;whiteSpace=wrap;html=1;rotation=-90;fontSize=20;fontStyle=1" parent="1" vertex="1">
                    <mxGeometry x="-541.5" y="3053.25" width="120" height="339.5" as="geometry"/>
                </mxCell>
                <mxCell id="505" value="arith&lt;br&gt;Expr" style="text;html=1;strokeColor=none;fillColor=none;align=center;verticalAlign=middle;whiteSpace=wrap;rounded=0;fontSize=20;fontStyle=1" parent="1" vertex="1">
                    <mxGeometry x="-516.5" y="3232" width="70" height="40" as="geometry"/>
                </mxCell>
                <mxCell id="506" value="&lt;span&gt;indexList&lt;/span&gt;" style="rounded=1;whiteSpace=wrap;html=1;arcSize=50;fontSize=20;fontStyle=1" parent="1" vertex="1">
                    <mxGeometry x="-772.75" y="3013" width="160" height="60" as="geometry"/>
                </mxCell>
                <mxCell id="507" style="edgeStyle=none;html=1;exitX=0.25;exitY=1;exitDx=0;exitDy=0;entryX=1;entryY=0.5;entryDx=0;entryDy=0;fontStyle=1" parent="1" source="506" target="502" edge="1">
                    <mxGeometry relative="1" as="geometry"/>
                </mxCell>
                <mxCell id="508" style="edgeStyle=none;html=1;exitX=0.75;exitY=1;exitDx=0;exitDy=0;entryX=1;entryY=0.5;entryDx=0;entryDy=0;fontStyle=1" parent="1" source="506" target="504" edge="1">
                    <mxGeometry relative="1" as="geometry">
                        <mxPoint x="-388.7500000000002" y="3251" as="targetPoint"/>
                    </mxGeometry>
                </mxCell>
                <mxCell id="509" value="&lt;font style=&quot;font-size: 20px&quot;&gt;&lt;span style=&quot;font-size: 20px;&quot;&gt;...&lt;/span&gt;&lt;/font&gt;" style="text;html=1;align=center;verticalAlign=middle;resizable=0;points=[];autosize=1;strokeColor=none;fillColor=none;fontSize=20;fontStyle=1" parent="1" vertex="1">
                    <mxGeometry x="-698.75" y="3240" width="27" height="28" as="geometry"/>
                </mxCell>
                <mxCell id="512" value="&lt;span&gt;fCall&lt;/span&gt;" style="rounded=1;whiteSpace=wrap;html=1;arcSize=50;fontSize=20;fontStyle=1" parent="1" vertex="1">
                    <mxGeometry x="-882.25" y="3415.12" width="160" height="60" as="geometry"/>
                </mxCell>
                <mxCell id="513" style="edgeStyle=none;html=1;exitX=0.25;exitY=1;exitDx=0;exitDy=0;entryX=0.5;entryY=0;entryDx=0;entryDy=0;fontStyle=1" parent="1" source="512" target="515" edge="1">
                    <mxGeometry relative="1" as="geometry">
                        <mxPoint x="-992" y="3565.120000000001" as="targetPoint"/>
                    </mxGeometry>
                </mxCell>
                <mxCell id="514" style="edgeStyle=none;html=1;exitX=0.75;exitY=1;exitDx=0;exitDy=0;entryX=1;entryY=0.5;entryDx=0;entryDy=0;fontStyle=1" parent="1" source="512" target="510" edge="1">
                    <mxGeometry relative="1" as="geometry">
                        <mxPoint x="-498.2500000000002" y="3653.12" as="targetPoint"/>
                    </mxGeometry>
                </mxCell>
                <mxCell id="515" value="&lt;font style=&quot;font-size: 20px&quot;&gt;&lt;span style=&quot;font-size: 20px;&quot;&gt;id&lt;/span&gt;&lt;/font&gt;" style="rounded=1;whiteSpace=wrap;html=1;arcSize=50;fontSize=20;fontStyle=1" parent="1" vertex="1">
                    <mxGeometry x="-958" y="3592.87" width="60" height="60" as="geometry"/>
                </mxCell>
                <mxCell id="516" value="" style="triangle;whiteSpace=wrap;html=1;rotation=-90;fontSize=20;fontStyle=1" parent="1" vertex="1">
                    <mxGeometry x="-903" y="3870.25" width="120" height="339.5" as="geometry"/>
                </mxCell>
                <mxCell id="517" value="expr" style="text;html=1;strokeColor=none;fillColor=none;align=center;verticalAlign=middle;whiteSpace=wrap;rounded=0;fontSize=20;fontStyle=1" parent="1" vertex="1">
                    <mxGeometry x="-878" y="4049" width="70" height="40" as="geometry"/>
                </mxCell>
                <mxCell id="518" value="" style="triangle;whiteSpace=wrap;html=1;rotation=-90;fontSize=20;fontStyle=1" parent="1" vertex="1">
                    <mxGeometry x="-502" y="3870.25" width="120" height="339.5" as="geometry"/>
                </mxCell>
                <mxCell id="519" value="expr" style="text;html=1;strokeColor=none;fillColor=none;align=center;verticalAlign=middle;whiteSpace=wrap;rounded=0;fontSize=20;fontStyle=1" parent="1" vertex="1">
                    <mxGeometry x="-477" y="4049" width="70" height="40" as="geometry"/>
                </mxCell>
                <mxCell id="520" value="&lt;span&gt;aParams&lt;/span&gt;" style="rounded=1;whiteSpace=wrap;html=1;arcSize=50;fontSize=20;fontStyle=1" parent="1" vertex="1">
                    <mxGeometry x="-733.25" y="3830" width="160" height="60" as="geometry"/>
                </mxCell>
                <mxCell id="521" style="edgeStyle=none;html=1;exitX=0.25;exitY=1;exitDx=0;exitDy=0;entryX=1;entryY=0.5;entryDx=0;entryDy=0;fontStyle=1" parent="1" source="520" target="516" edge="1">
                    <mxGeometry relative="1" as="geometry"/>
                </mxCell>
                <mxCell id="522" style="edgeStyle=none;html=1;exitX=0.75;exitY=1;exitDx=0;exitDy=0;entryX=1;entryY=0.5;entryDx=0;entryDy=0;fontStyle=1" parent="1" source="520" target="518" edge="1">
                    <mxGeometry relative="1" as="geometry">
                        <mxPoint x="-349.2500000000002" y="4068" as="targetPoint"/>
                    </mxGeometry>
                </mxCell>
                <mxCell id="523" value="&lt;font style=&quot;font-size: 20px&quot;&gt;&lt;span style=&quot;font-size: 20px;&quot;&gt;...&lt;/span&gt;&lt;/font&gt;" style="text;html=1;align=center;verticalAlign=middle;resizable=0;points=[];autosize=1;strokeColor=none;fillColor=none;fontSize=20;fontStyle=1" parent="1" vertex="1">
                    <mxGeometry x="-659.25" y="4057" width="27" height="28" as="geometry"/>
                </mxCell>
                <mxCell id="524" value="" style="group" parent="1" vertex="1" connectable="0">
                    <mxGeometry x="-1469" y="3594" width="339.5" height="120" as="geometry"/>
                </mxCell>
                <mxCell id="495" value="" style="triangle;whiteSpace=wrap;html=1;rotation=-90;fontSize=20;fontStyle=1" parent="524" vertex="1">
                    <mxGeometry x="109.75" y="-109.75" width="120" height="339.5" as="geometry"/>
                </mxCell>
                <mxCell id="496" value="indexList" style="text;html=1;strokeColor=none;fillColor=none;align=center;verticalAlign=middle;whiteSpace=wrap;rounded=0;fontSize=20;fontStyle=1" parent="524" vertex="1">
                    <mxGeometry x="134.75" y="69" width="70" height="40" as="geometry"/>
                </mxCell>
                <mxCell id="525" value="" style="group" parent="1" vertex="1" connectable="0">
                    <mxGeometry x="-854" y="3547" width="339.5" height="120" as="geometry"/>
                </mxCell>
                <mxCell id="510" value="" style="triangle;whiteSpace=wrap;html=1;rotation=-90;fontSize=20;fontStyle=1" parent="525" vertex="1">
                    <mxGeometry x="109.75" y="-109.75" width="120" height="339.5" as="geometry"/>
                </mxCell>
                <mxCell id="511" value="aParams" style="text;html=1;strokeColor=none;fillColor=none;align=center;verticalAlign=middle;whiteSpace=wrap;rounded=0;fontSize=20;fontStyle=1" parent="525" vertex="1">
                    <mxGeometry x="134.75" y="69" width="70" height="40" as="geometry"/>
                </mxCell>
                <mxCell id="526" value="" style="rounded=1;whiteSpace=wrap;html=1;fontSize=20;arcSize=4;fillColor=default;fontStyle=1" parent="1" vertex="1">
                    <mxGeometry x="-2283" y="3386" width="488" height="272" as="geometry"/>
                </mxCell>
                <mxCell id="527" value="&lt;span&gt;varElement&lt;/span&gt;" style="text;html=1;align=center;verticalAlign=middle;resizable=0;points=[];autosize=1;strokeColor=none;fillColor=none;fontSize=20;fontStyle=1" parent="1" vertex="1">
                    <mxGeometry x="-2259" y="3397" width="118" height="28" as="geometry"/>
                </mxCell>
                <mxCell id="535" value="" style="triangle;whiteSpace=wrap;html=1;rotation=-90;fontSize=20;fontStyle=1" parent="1" vertex="1">
                    <mxGeometry x="-2228.25" y="3427.25" width="120" height="201" as="geometry"/>
                </mxCell>
                <mxCell id="536" value="dataMember" style="text;html=1;strokeColor=none;fillColor=none;align=center;verticalAlign=middle;whiteSpace=wrap;rounded=0;fontSize=20;fontStyle=1" parent="1" vertex="1">
                    <mxGeometry x="-2196" y="3536" width="70" height="40" as="geometry"/>
                </mxCell>
                <mxCell id="538" value="" style="triangle;whiteSpace=wrap;html=1;rotation=-90;fontSize=20;fontStyle=1" parent="1" vertex="1">
                    <mxGeometry x="-1987" y="3430.5" width="120" height="201" as="geometry"/>
                </mxCell>
                <mxCell id="539" value="fCall" style="text;html=1;strokeColor=none;fillColor=none;align=center;verticalAlign=middle;whiteSpace=wrap;rounded=0;fontSize=20;fontStyle=1" parent="1" vertex="1">
                    <mxGeometry x="-1954.75" y="3539.25" width="70" height="40" as="geometry"/>
                </mxCell>
                <mxCell id="540" style="edgeStyle=none;html=1;exitX=0.5;exitY=1;exitDx=0;exitDy=0;entryX=0.5;entryY=0;entryDx=0;entryDy=0;" parent="1" source="541" target="547" edge="1">
                    <mxGeometry relative="1" as="geometry"/>
                </mxCell>
                <mxCell id="541" value="&lt;span&gt;functionCall&lt;/span&gt;" style="rounded=1;whiteSpace=wrap;html=1;arcSize=50;fontSize=20;fontStyle=1" parent="1" vertex="1">
                    <mxGeometry x="-1064.25" y="2124" width="160" height="60" as="geometry"/>
                </mxCell>
                <mxCell id="542" style="edgeStyle=none;html=1;exitX=0.25;exitY=1;exitDx=0;exitDy=0;entryX=1;entryY=0.5;entryDx=0;entryDy=0;fontStyle=1" parent="1" source="541" target="545" edge="1">
                    <mxGeometry relative="1" as="geometry"/>
                </mxCell>
                <mxCell id="543" style="edgeStyle=none;html=1;exitX=0.75;exitY=1;exitDx=0;exitDy=0;entryX=1;entryY=0.5;entryDx=0;entryDy=0;fontStyle=1" parent="1" source="541" target="549" edge="1">
                    <mxGeometry relative="1" as="geometry">
                        <mxPoint x="-772.9999999999998" y="2274" as="targetPoint"/>
                    </mxGeometry>
                </mxCell>
                <mxCell id="544" value="" style="group" parent="1" vertex="1" connectable="0">
                    <mxGeometry x="-1204.0049999999999" y="2286.995" width="160.75" height="120" as="geometry"/>
                </mxCell>
                <mxCell id="545" value="" style="triangle;whiteSpace=wrap;html=1;rotation=-90;fontSize=20;fontStyle=1" parent="544" vertex="1">
                    <mxGeometry x="20.375" y="-20.375" width="120" height="160.75" as="geometry"/>
                </mxCell>
                <mxCell id="546" value="var" style="text;html=1;strokeColor=none;fillColor=none;align=center;verticalAlign=middle;whiteSpace=wrap;rounded=0;fontSize=20;fontStyle=1" parent="544" vertex="1">
                    <mxGeometry x="47.74499999999989" y="62.99499999999989" width="70" height="40" as="geometry"/>
                </mxCell>
                <mxCell id="547" value="&lt;font style=&quot;font-size: 20px&quot;&gt;&lt;span style=&quot;font-size: 20px;&quot;&gt;id&lt;/span&gt;&lt;/font&gt;" style="rounded=1;whiteSpace=wrap;html=1;arcSize=50;fontSize=20;fontStyle=1" parent="1" vertex="1">
                    <mxGeometry x="-1018.5" y="2333" width="60" height="60" as="geometry"/>
                </mxCell>
                <mxCell id="548" value="" style="group" parent="1" vertex="1" connectable="0">
                    <mxGeometry x="-914" y="2283" width="240" height="120" as="geometry"/>
                </mxCell>
                <mxCell id="549" value="" style="triangle;whiteSpace=wrap;html=1;rotation=-90;fontSize=20;fontStyle=1" parent="548" vertex="1">
                    <mxGeometry x="60" y="-60" width="120" height="240" as="geometry"/>
                </mxCell>
                <mxCell id="550" value="aParams" style="text;html=1;strokeColor=none;fillColor=none;align=center;verticalAlign=middle;whiteSpace=wrap;rounded=0;fontSize=20;fontStyle=1" parent="548" vertex="1">
                    <mxGeometry x="85" y="55" width="70" height="40" as="geometry"/>
                </mxCell>
                <mxCell id="557" value="" style="group" parent="1" vertex="1" connectable="0">
                    <mxGeometry x="-3593" y="2328" width="488" height="272" as="geometry"/>
                </mxCell>
                <mxCell id="551" value="" style="rounded=1;whiteSpace=wrap;html=1;fontSize=20;arcSize=4;fillColor=default;fontStyle=1" parent="557" vertex="1">
                    <mxGeometry width="488" height="272" as="geometry"/>
                </mxCell>
                <mxCell id="552" value="&lt;span&gt;expr&lt;/span&gt;" style="text;html=1;align=center;verticalAlign=middle;resizable=0;points=[];autosize=1;strokeColor=none;fillColor=none;fontSize=20;fontStyle=1" parent="557" vertex="1">
                    <mxGeometry x="57" y="11" width="52" height="28" as="geometry"/>
                </mxCell>
                <mxCell id="553" value="" style="triangle;whiteSpace=wrap;html=1;rotation=-90;fontSize=20;fontStyle=1" parent="557" vertex="1">
                    <mxGeometry x="54.75" y="41.25" width="120" height="201" as="geometry"/>
                </mxCell>
                <mxCell id="554" value="rel&lt;br&gt;expr" style="text;html=1;strokeColor=none;fillColor=none;align=center;verticalAlign=middle;whiteSpace=wrap;rounded=0;fontSize=20;fontStyle=1" parent="557" vertex="1">
                    <mxGeometry x="87" y="150" width="70" height="40" as="geometry"/>
                </mxCell>
                <mxCell id="555" value="" style="triangle;whiteSpace=wrap;html=1;rotation=-90;fontSize=20;fontStyle=1" parent="557" vertex="1">
                    <mxGeometry x="296" y="44.5" width="120" height="201" as="geometry"/>
                </mxCell>
                <mxCell id="556" value="arith&lt;br&gt;expr" style="text;html=1;strokeColor=none;fillColor=none;align=center;verticalAlign=middle;whiteSpace=wrap;rounded=0;fontSize=20;fontStyle=1" parent="557" vertex="1">
                    <mxGeometry x="328.25" y="153.25" width="70" height="40" as="geometry"/>
                </mxCell>
                <mxCell id="559" value="" style="rounded=1;whiteSpace=wrap;html=1;fontSize=20;arcSize=4;fillColor=default;fontStyle=1" parent="1" vertex="1">
                    <mxGeometry x="-3685" y="2701" width="714" height="392" as="geometry"/>
                </mxCell>
                <mxCell id="560" value="&lt;span&gt;arithExpr&lt;/span&gt;" style="text;html=1;align=center;verticalAlign=middle;resizable=0;points=[];autosize=1;strokeColor=none;fillColor=none;fontSize=20;fontStyle=1" parent="1" vertex="1">
                    <mxGeometry x="-3658" y="2728" width="98" height="28" as="geometry"/>
                </mxCell>
                <mxCell id="561" value="" style="triangle;whiteSpace=wrap;html=1;rotation=-90;fontSize=20;fontStyle=1" parent="1" vertex="1">
                    <mxGeometry x="-3606" y="2889.75" width="120" height="201" as="geometry"/>
                </mxCell>
                <mxCell id="562" value="arith&lt;br&gt;expr" style="text;html=1;strokeColor=none;fillColor=none;align=center;verticalAlign=middle;whiteSpace=wrap;rounded=0;fontSize=20;fontStyle=1" parent="1" vertex="1">
                    <mxGeometry x="-3578" y="2987" width="70" height="40" as="geometry"/>
                </mxCell>
                <mxCell id="563" value="" style="triangle;whiteSpace=wrap;html=1;rotation=-90;fontSize=20;fontStyle=1" parent="1" vertex="1">
                    <mxGeometry x="-3364.75" y="2893" width="120" height="201" as="geometry"/>
                </mxCell>
                <mxCell id="564" value="term" style="text;html=1;strokeColor=none;fillColor=none;align=center;verticalAlign=middle;whiteSpace=wrap;rounded=0;fontSize=20;fontStyle=1" parent="1" vertex="1">
                    <mxGeometry x="-3336.75" y="2990.25" width="70" height="40" as="geometry"/>
                </mxCell>
                <mxCell id="566" style="edgeStyle=none;html=1;exitX=0.25;exitY=1;exitDx=0;exitDy=0;entryX=1;entryY=0.5;entryDx=0;entryDy=0;" parent="1" source="565" target="561" edge="1">
                    <mxGeometry relative="1" as="geometry"/>
                </mxCell>
                <mxCell id="567" style="edgeStyle=none;html=1;exitX=0.75;exitY=1;exitDx=0;exitDy=0;entryX=1;entryY=0.5;entryDx=0;entryDy=0;" parent="1" source="565" target="563" edge="1">
                    <mxGeometry relative="1" as="geometry"/>
                </mxCell>
                <mxCell id="565" value="&lt;span&gt;addOp&lt;/span&gt;" style="rounded=1;whiteSpace=wrap;html=1;arcSize=50;fontSize=20;fontStyle=1" parent="1" vertex="1">
                    <mxGeometry x="-3506" y="2792" width="160" height="60" as="geometry"/>
                </mxCell>
                <mxCell id="568" value="" style="triangle;whiteSpace=wrap;html=1;rotation=-90;fontSize=20;fontStyle=1" parent="1" vertex="1">
                    <mxGeometry x="-3222" y="2721.5" width="120" height="201" as="geometry"/>
                </mxCell>
                <mxCell id="569" value="term" style="text;html=1;strokeColor=none;fillColor=none;align=center;verticalAlign=middle;whiteSpace=wrap;rounded=0;fontSize=20;fontStyle=1" parent="1" vertex="1">
                    <mxGeometry x="-3194" y="2818.75" width="70" height="40" as="geometry"/>
                </mxCell>
                <mxCell id="572" value="" style="triangle;whiteSpace=wrap;html=1;rotation=-90;fontSize=20;fontStyle=1" parent="1" vertex="1">
                    <mxGeometry x="-2905" y="2786" width="120" height="201" as="geometry"/>
                </mxCell>
                <mxCell id="573" value="expr" style="text;html=1;strokeColor=none;fillColor=none;align=center;verticalAlign=middle;whiteSpace=wrap;rounded=0;fontSize=20;fontStyle=1" parent="1" vertex="1">
                    <mxGeometry x="-2877" y="2883.25" width="70" height="40" as="geometry"/>
                </mxCell>
                <mxCell id="574" value="" style="triangle;whiteSpace=wrap;html=1;rotation=-90;fontSize=20;fontStyle=1" parent="1" vertex="1">
                    <mxGeometry x="-2533" y="2786" width="120" height="201" as="geometry"/>
                </mxCell>
                <mxCell id="575" value="expr" style="text;html=1;strokeColor=none;fillColor=none;align=center;verticalAlign=middle;whiteSpace=wrap;rounded=0;fontSize=20;fontStyle=1" parent="1" vertex="1">
                    <mxGeometry x="-2505" y="2883.25" width="70" height="40" as="geometry"/>
                </mxCell>
                <mxCell id="576" style="edgeStyle=none;html=1;exitX=0.25;exitY=1;exitDx=0;exitDy=0;entryX=1;entryY=0.5;entryDx=0;entryDy=0;" parent="1" source="578" target="572" edge="1">
                    <mxGeometry relative="1" as="geometry"/>
                </mxCell>
                <mxCell id="577" style="edgeStyle=none;html=1;exitX=0.75;exitY=1;exitDx=0;exitDy=0;entryX=1;entryY=0.5;entryDx=0;entryDy=0;" parent="1" source="578" target="574" edge="1">
                    <mxGeometry relative="1" as="geometry"/>
                </mxCell>
                <mxCell id="582" style="edgeStyle=none;html=1;exitX=0.5;exitY=1;exitDx=0;exitDy=0;entryX=0.5;entryY=0;entryDx=0;entryDy=0;" parent="1" source="578" target="581" edge="1">
                    <mxGeometry relative="1" as="geometry"/>
                </mxCell>
                <mxCell id="578" value="&lt;span&gt;relExpr&lt;/span&gt;" style="rounded=1;whiteSpace=wrap;html=1;arcSize=50;fontSize=20;fontStyle=1" parent="1" vertex="1">
                    <mxGeometry x="-2738.75" y="2694.5" width="160" height="60" as="geometry"/>
                </mxCell>
                <mxCell id="581" value="&lt;span&gt;relOp&lt;/span&gt;" style="rounded=1;whiteSpace=wrap;html=1;arcSize=50;fontSize=20;fontStyle=1" parent="1" vertex="1">
                    <mxGeometry x="-2738.75" y="2834.25" width="160" height="60" as="geometry"/>
                </mxCell>
                <mxCell id="583" value="" style="rounded=1;whiteSpace=wrap;html=1;fontSize=20;arcSize=4;fillColor=default;fontStyle=1" parent="1" vertex="1">
                    <mxGeometry x="-3675" y="3270" width="714" height="392" as="geometry"/>
                </mxCell>
                <mxCell id="584" value="&lt;span&gt;term&lt;/span&gt;" style="text;html=1;align=center;verticalAlign=middle;resizable=0;points=[];autosize=1;strokeColor=none;fillColor=none;fontSize=20;fontStyle=1" parent="1" vertex="1">
                    <mxGeometry x="-3625" y="3297" width="53" height="28" as="geometry"/>
                </mxCell>
                <mxCell id="585" value="" style="triangle;whiteSpace=wrap;html=1;rotation=-90;fontSize=20;fontStyle=1" parent="1" vertex="1">
                    <mxGeometry x="-3596" y="3458.75" width="120" height="201" as="geometry"/>
                </mxCell>
                <mxCell id="586" value="term" style="text;html=1;strokeColor=none;fillColor=none;align=center;verticalAlign=middle;whiteSpace=wrap;rounded=0;fontSize=20;fontStyle=1" parent="1" vertex="1">
                    <mxGeometry x="-3568" y="3556" width="70" height="40" as="geometry"/>
                </mxCell>
                <mxCell id="587" value="" style="triangle;whiteSpace=wrap;html=1;rotation=-90;fontSize=20;fontStyle=1" parent="1" vertex="1">
                    <mxGeometry x="-3354.75" y="3462" width="120" height="201" as="geometry"/>
                </mxCell>
                <mxCell id="588" value="factor" style="text;html=1;strokeColor=none;fillColor=none;align=center;verticalAlign=middle;whiteSpace=wrap;rounded=0;fontSize=20;fontStyle=1" parent="1" vertex="1">
                    <mxGeometry x="-3326.75" y="3559.25" width="70" height="40" as="geometry"/>
                </mxCell>
                <mxCell id="589" style="edgeStyle=none;html=1;exitX=0.25;exitY=1;exitDx=0;exitDy=0;entryX=1;entryY=0.5;entryDx=0;entryDy=0;" parent="1" source="591" target="585" edge="1">
                    <mxGeometry relative="1" as="geometry"/>
                </mxCell>
                <mxCell id="590" style="edgeStyle=none;html=1;exitX=0.75;exitY=1;exitDx=0;exitDy=0;entryX=1;entryY=0.5;entryDx=0;entryDy=0;" parent="1" source="591" target="587" edge="1">
                    <mxGeometry relative="1" as="geometry"/>
                </mxCell>
                <mxCell id="591" value="&lt;span&gt;multOp&lt;/span&gt;" style="rounded=1;whiteSpace=wrap;html=1;arcSize=50;fontSize=20;fontStyle=1" parent="1" vertex="1">
                    <mxGeometry x="-3496" y="3361" width="160" height="60" as="geometry"/>
                </mxCell>
                <mxCell id="592" value="" style="triangle;whiteSpace=wrap;html=1;rotation=-90;fontSize=20;fontStyle=1" parent="1" vertex="1">
                    <mxGeometry x="-3212" y="3290.5" width="120" height="201" as="geometry"/>
                </mxCell>
                <mxCell id="593" value="factor" style="text;html=1;strokeColor=none;fillColor=none;align=center;verticalAlign=middle;whiteSpace=wrap;rounded=0;fontSize=20;fontStyle=1" parent="1" vertex="1">
                    <mxGeometry x="-3184" y="3387.75" width="70" height="40" as="geometry"/>
                </mxCell>
                <mxCell id="594" value="" style="rounded=1;whiteSpace=wrap;html=1;fontSize=20;arcSize=4;fillColor=default;fontStyle=1" parent="1" vertex="1">
                    <mxGeometry x="-3675" y="3726" width="714" height="536.25" as="geometry"/>
                </mxCell>
                <mxCell id="595" value="&lt;span&gt;factor&lt;/span&gt;" style="text;html=1;align=center;verticalAlign=middle;resizable=0;points=[];autosize=1;strokeColor=none;fillColor=none;fontSize=20;fontStyle=1" parent="1" vertex="1">
                    <mxGeometry x="-3634" y="3736" width="66" height="28" as="geometry"/>
                </mxCell>
                <mxCell id="596" value="" style="triangle;whiteSpace=wrap;html=1;rotation=-90;fontSize=20;fontStyle=1" parent="1" vertex="1">
                    <mxGeometry x="-3596" y="4059" width="120" height="201" as="geometry"/>
                </mxCell>
                <mxCell id="597" value="factor" style="text;html=1;strokeColor=none;fillColor=none;align=center;verticalAlign=middle;whiteSpace=wrap;rounded=0;fontSize=20;fontStyle=1" parent="1" vertex="1">
                    <mxGeometry x="-3568" y="4156.25" width="70" height="40" as="geometry"/>
                </mxCell>
                <mxCell id="600" style="edgeStyle=none;html=1;exitX=0.5;exitY=1;exitDx=0;exitDy=0;entryX=1;entryY=0.5;entryDx=0;entryDy=0;" parent="1" source="602" target="596" edge="1">
                    <mxGeometry relative="1" as="geometry"/>
                </mxCell>
                <mxCell id="602" value="&lt;span&gt;not&lt;/span&gt;" style="rounded=1;whiteSpace=wrap;html=1;arcSize=50;fontSize=20;fontStyle=1" parent="1" vertex="1">
                    <mxGeometry x="-3616" y="3985" width="160" height="60" as="geometry"/>
                </mxCell>
                <mxCell id="605" value="" style="triangle;whiteSpace=wrap;html=1;rotation=-90;fontSize=20;fontStyle=1" parent="1" vertex="1">
                    <mxGeometry x="-3388" y="4059" width="120" height="201" as="geometry"/>
                </mxCell>
                <mxCell id="606" value="factor" style="text;html=1;strokeColor=none;fillColor=none;align=center;verticalAlign=middle;whiteSpace=wrap;rounded=0;fontSize=20;fontStyle=1" parent="1" vertex="1">
                    <mxGeometry x="-3360" y="4156.25" width="70" height="40" as="geometry"/>
                </mxCell>
                <mxCell id="607" style="edgeStyle=none;html=1;exitX=0.5;exitY=1;exitDx=0;exitDy=0;entryX=1;entryY=0.5;entryDx=0;entryDy=0;" parent="1" source="608" target="605" edge="1">
                    <mxGeometry relative="1" as="geometry"/>
                </mxCell>
                <mxCell id="608" value="&lt;span&gt;sign&lt;/span&gt;" style="rounded=1;whiteSpace=wrap;html=1;arcSize=50;fontSize=20;fontStyle=1" parent="1" vertex="1">
                    <mxGeometry x="-3408" y="3985" width="160" height="60" as="geometry"/>
                </mxCell>
                <mxCell id="609" value="" style="group" parent="1" vertex="1" connectable="0">
                    <mxGeometry x="-3655" y="3774" width="201" height="120" as="geometry"/>
                </mxCell>
                <mxCell id="603" value="" style="triangle;whiteSpace=wrap;html=1;rotation=-90;fontSize=20;fontStyle=1" parent="609" vertex="1">
                    <mxGeometry x="40.5" y="-40.5" width="120" height="201" as="geometry"/>
                </mxCell>
                <mxCell id="604" value="variable" style="text;html=1;strokeColor=none;fillColor=none;align=center;verticalAlign=middle;whiteSpace=wrap;rounded=0;fontSize=20;fontStyle=1" parent="609" vertex="1">
                    <mxGeometry x="68.5" y="56.75" width="70" height="40" as="geometry"/>
                </mxCell>
                <mxCell id="610" value="" style="group" parent="1" vertex="1" connectable="0">
                    <mxGeometry x="-3446" y="3776" width="201" height="120" as="geometry"/>
                </mxCell>
                <mxCell id="611" value="" style="triangle;whiteSpace=wrap;html=1;rotation=-90;fontSize=20;fontStyle=1" parent="610" vertex="1">
                    <mxGeometry x="40.5" y="-40.5" width="120" height="201" as="geometry"/>
                </mxCell>
                <mxCell id="612" value="functionCall" style="text;html=1;strokeColor=none;fillColor=none;align=center;verticalAlign=middle;whiteSpace=wrap;rounded=0;fontSize=20;fontStyle=1" parent="610" vertex="1">
                    <mxGeometry x="68.5" y="56.75" width="70" height="40" as="geometry"/>
                </mxCell>
                <mxCell id="613" value="" style="group" parent="1" vertex="1" connectable="0">
                    <mxGeometry x="-3232" y="3776" width="201" height="120" as="geometry"/>
                </mxCell>
                <mxCell id="614" value="" style="triangle;whiteSpace=wrap;html=1;rotation=-90;fontSize=20;fontStyle=1" parent="613" vertex="1">
                    <mxGeometry x="40.5" y="-40.5" width="120" height="201" as="geometry"/>
                </mxCell>
                <mxCell id="615" value="arithExpr" style="text;html=1;strokeColor=none;fillColor=none;align=center;verticalAlign=middle;whiteSpace=wrap;rounded=0;fontSize=20;fontStyle=1" parent="613" vertex="1">
                    <mxGeometry x="68.5" y="56.75" width="70" height="40" as="geometry"/>
                </mxCell>
                <mxCell id="616" value="&lt;span&gt;num&lt;/span&gt;" style="rounded=1;whiteSpace=wrap;html=1;arcSize=50;fontSize=20;fontStyle=1" parent="1" vertex="1">
                    <mxGeometry x="-3182" y="3976" width="99" height="60" as="geometry"/>
                </mxCell>
                <mxCell id="628" value="" style="rounded=1;whiteSpace=wrap;html=1;fontSize=20;arcSize=4;fillColor=default;fontStyle=1" parent="1" vertex="1">
                    <mxGeometry x="-733.25" y="677" width="467.25" height="244" as="geometry"/>
                </mxCell>
                <mxCell id="630" value="varDeclOrStatmentList" style="rounded=1;whiteSpace=wrap;html=1;arcSize=50;fontSize=20;fontStyle=1" parent="1" vertex="1">
                    <mxGeometry x="-671.25" y="795" width="249" height="60" as="geometry"/>
                </mxCell>
                <mxCell id="631" value="statBlock" style="text;html=1;align=center;verticalAlign=middle;resizable=0;points=[];autosize=1;strokeColor=none;fillColor=none;fontSize=20;fontStyle=1" parent="1" vertex="1">
                    <mxGeometry x="-698.75" y="695" width="100" height="28" as="geometry"/>
                </mxCell>
                <mxCell id="632" value="&lt;font style=&quot;font-size: 20px&quot;&gt;&lt;span style=&quot;font-size: 20px;&quot;&gt;ε&lt;/span&gt;&lt;/font&gt;" style="rounded=1;whiteSpace=wrap;html=1;arcSize=50;fontSize=20;fontStyle=1" parent="1" vertex="1">
                    <mxGeometry x="-386" y="795" width="60" height="60" as="geometry"/>
                </mxCell>
                <mxCell id="633" value="&lt;span&gt;readStat&lt;/span&gt;" style="rounded=1;whiteSpace=wrap;html=1;arcSize=50;fontSize=20;fontStyle=1" parent="1" vertex="1">
                    <mxGeometry x="-3559" y="4887" width="160" height="60" as="geometry"/>
                </mxCell>
                <mxCell id="634" value="" style="triangle;whiteSpace=wrap;html=1;rotation=-90;fontSize=20;fontStyle=1" parent="1" vertex="1">
                    <mxGeometry x="-3541.25" y="4939" width="120" height="240" as="geometry"/>
                </mxCell>
                <mxCell id="635" value="variable" style="text;html=1;strokeColor=none;fillColor=none;align=center;verticalAlign=middle;whiteSpace=wrap;rounded=0;fontSize=20;fontStyle=1" parent="1" vertex="1">
                    <mxGeometry x="-3516.25" y="5054" width="70" height="40" as="geometry"/>
                </mxCell>
                <mxCell id="639" style="edgeStyle=none;html=1;exitX=0.5;exitY=1;exitDx=0;exitDy=0;entryX=1;entryY=0.5;entryDx=0;entryDy=0;fontStyle=1" parent="1" source="633" target="634" edge="1">
                    <mxGeometry relative="1" as="geometry"/>
                </mxCell>
                <mxCell id="641" value="&lt;span&gt;writeStat&lt;/span&gt;" style="rounded=1;whiteSpace=wrap;html=1;arcSize=50;fontSize=20;fontStyle=1" parent="1" vertex="1">
                    <mxGeometry x="-3261" y="4884" width="160" height="60" as="geometry"/>
                </mxCell>
                <mxCell id="642" value="" style="triangle;whiteSpace=wrap;html=1;rotation=-90;fontSize=20;fontStyle=1" parent="1" vertex="1">
                    <mxGeometry x="-3243.25" y="4936" width="120" height="240" as="geometry"/>
                </mxCell>
                <mxCell id="643" value="expr" style="text;html=1;strokeColor=none;fillColor=none;align=center;verticalAlign=middle;whiteSpace=wrap;rounded=0;fontSize=20;fontStyle=1" parent="1" vertex="1">
                    <mxGeometry x="-3218.25" y="5051" width="70" height="40" as="geometry"/>
                </mxCell>
                <mxCell id="644" style="edgeStyle=none;html=1;exitX=0.5;exitY=1;exitDx=0;exitDy=0;entryX=1;entryY=0.5;entryDx=0;entryDy=0;fontStyle=1" parent="1" source="641" target="642" edge="1">
                    <mxGeometry relative="1" as="geometry"/>
                </mxCell>
                <mxCell id="645" value="&lt;span&gt;returnStat&lt;/span&gt;" style="rounded=1;whiteSpace=wrap;html=1;arcSize=50;fontSize=20;fontStyle=1" parent="1" vertex="1">
                    <mxGeometry x="-2938" y="4884" width="160" height="60" as="geometry"/>
                </mxCell>
                <mxCell id="646" value="" style="triangle;whiteSpace=wrap;html=1;rotation=-90;fontSize=20;fontStyle=1" parent="1" vertex="1">
                    <mxGeometry x="-2920.25" y="4936" width="120" height="240" as="geometry"/>
                </mxCell>
                <mxCell id="647" value="expr" style="text;html=1;strokeColor=none;fillColor=none;align=center;verticalAlign=middle;whiteSpace=wrap;rounded=0;fontSize=20;fontStyle=1" parent="1" vertex="1">
                    <mxGeometry x="-2895.25" y="5051" width="70" height="40" as="geometry"/>
                </mxCell>
                <mxCell id="648" style="edgeStyle=none;html=1;exitX=0.5;exitY=1;exitDx=0;exitDy=0;entryX=1;entryY=0.5;entryDx=0;entryDy=0;fontStyle=1" parent="1" source="645" target="646" edge="1">
                    <mxGeometry relative="1" as="geometry"/>
                </mxCell>
            </root>
        </mxGraphModel>
    </diagram>
    <diagram id="hue5KhbcYn8Ip4ZsGNEC" name="Page-2">
        <mxGraphModel dx="1504" dy="792" grid="0" gridSize="10" guides="1" tooltips="1" connect="1" arrows="1" fold="1" page="1" pageScale="1" pageWidth="827" pageHeight="1169" math="0" shadow="0">
            <root>
                <mxCell id="FufW82lX-6NXtObVGsH1-0"/>
                <mxCell id="FufW82lX-6NXtObVGsH1-1" parent="FufW82lX-6NXtObVGsH1-0"/>
                <mxCell id="FufW82lX-6NXtObVGsH1-3" value="This page is for drawing parse trees" style="text;html=1;align=center;verticalAlign=middle;resizable=0;points=[];autosize=1;strokeColor=none;fillColor=none;" parent="FufW82lX-6NXtObVGsH1-1" vertex="1">
                    <mxGeometry x="52" y="38" width="201" height="18" as="geometry"/>
                </mxCell>
                <mxCell id="FufW82lX-6NXtObVGsH1-4" value="&lt;div&gt;SRC:&lt;/div&gt;&lt;div&gt;&lt;br&gt;&lt;/div&gt;&lt;div&gt;func main() -&amp;gt; void {&lt;/div&gt;&lt;div&gt;&amp;nbsp; &amp;nbsp; write(id1 + id2 * id3);&lt;/div&gt;&lt;div&gt;}&lt;/div&gt;" style="text;html=1;align=left;verticalAlign=middle;resizable=0;points=[];autosize=1;strokeColor=none;fillColor=none;" parent="FufW82lX-6NXtObVGsH1-1" vertex="1">
                    <mxGeometry x="45" y="220" width="133" height="74" as="geometry"/>
                </mxCell>
                <mxCell id="FufW82lX-6NXtObVGsH1-7" value="" style="edgeStyle=none;html=1;" parent="FufW82lX-6NXtObVGsH1-1" source="FufW82lX-6NXtObVGsH1-5" target="FufW82lX-6NXtObVGsH1-6" edge="1">
                    <mxGeometry relative="1" as="geometry"/>
                </mxCell>
                <mxCell id="FufW82lX-6NXtObVGsH1-8" value="" style="edgeStyle=none;html=1;" parent="FufW82lX-6NXtObVGsH1-1" source="FufW82lX-6NXtObVGsH1-5" target="FufW82lX-6NXtObVGsH1-6" edge="1">
                    <mxGeometry relative="1" as="geometry"/>
                </mxCell>
                <mxCell id="FufW82lX-6NXtObVGsH1-9" value="" style="edgeStyle=none;html=1;" parent="FufW82lX-6NXtObVGsH1-1" source="FufW82lX-6NXtObVGsH1-5" target="FufW82lX-6NXtObVGsH1-6" edge="1">
                    <mxGeometry relative="1" as="geometry"/>
                </mxCell>
                <mxCell id="FufW82lX-6NXtObVGsH1-10" value="" style="edgeStyle=none;html=1;" parent="FufW82lX-6NXtObVGsH1-1" source="FufW82lX-6NXtObVGsH1-5" target="FufW82lX-6NXtObVGsH1-6" edge="1">
                    <mxGeometry relative="1" as="geometry"/>
                </mxCell>
                <mxCell id="FufW82lX-6NXtObVGsH1-5" value="&amp;lt;prog&amp;gt;" style="rounded=1;whiteSpace=wrap;html=1;" parent="FufW82lX-6NXtObVGsH1-1" vertex="1">
                    <mxGeometry x="354" y="131" width="120" height="60" as="geometry"/>
                </mxCell>
                <mxCell id="FufW82lX-6NXtObVGsH1-14" style="edgeStyle=none;html=1;exitX=0.5;exitY=1;exitDx=0;exitDy=0;entryX=0.5;entryY=0;entryDx=0;entryDy=0;" parent="FufW82lX-6NXtObVGsH1-1" source="FufW82lX-6NXtObVGsH1-6" target="FufW82lX-6NXtObVGsH1-13" edge="1">
                    <mxGeometry relative="1" as="geometry"/>
                </mxCell>
                <mxCell id="FufW82lX-6NXtObVGsH1-17" value="" style="edgeStyle=none;html=1;" parent="FufW82lX-6NXtObVGsH1-1" source="FufW82lX-6NXtObVGsH1-6" target="FufW82lX-6NXtObVGsH1-16" edge="1">
                    <mxGeometry relative="1" as="geometry"/>
                </mxCell>
                <mxCell id="FufW82lX-6NXtObVGsH1-6" value="rept-prog0" style="rounded=1;whiteSpace=wrap;html=1;" parent="FufW82lX-6NXtObVGsH1-1" vertex="1">
                    <mxGeometry x="354" y="269" width="120" height="60" as="geometry"/>
                </mxCell>
                <mxCell id="FufW82lX-6NXtObVGsH1-21" value="" style="edgeStyle=none;html=1;" parent="FufW82lX-6NXtObVGsH1-1" source="FufW82lX-6NXtObVGsH1-13" target="FufW82lX-6NXtObVGsH1-20" edge="1">
                    <mxGeometry relative="1" as="geometry"/>
                </mxCell>
                <mxCell id="FufW82lX-6NXtObVGsH1-13" value="rept-prog0" style="rounded=1;whiteSpace=wrap;html=1;" parent="FufW82lX-6NXtObVGsH1-1" vertex="1">
                    <mxGeometry x="453" y="380" width="120" height="60" as="geometry"/>
                </mxCell>
                <mxCell id="FufW82lX-6NXtObVGsH1-19" value="" style="edgeStyle=none;html=1;" parent="FufW82lX-6NXtObVGsH1-1" source="FufW82lX-6NXtObVGsH1-16" target="FufW82lX-6NXtObVGsH1-18" edge="1">
                    <mxGeometry relative="1" as="geometry"/>
                </mxCell>
                <mxCell id="FufW82lX-6NXtObVGsH1-16" value="&amp;lt;structOrImplOrFunc&amp;gt;" style="whiteSpace=wrap;html=1;rounded=1;" parent="FufW82lX-6NXtObVGsH1-1" vertex="1">
                    <mxGeometry x="261" y="382" width="120" height="60" as="geometry"/>
                </mxCell>
                <mxCell id="FufW82lX-6NXtObVGsH1-23" value="" style="edgeStyle=none;html=1;" parent="FufW82lX-6NXtObVGsH1-1" source="FufW82lX-6NXtObVGsH1-18" target="FufW82lX-6NXtObVGsH1-22" edge="1">
                    <mxGeometry relative="1" as="geometry"/>
                </mxCell>
                <mxCell id="FufW82lX-6NXtObVGsH1-26" value="" style="edgeStyle=none;html=1;" parent="FufW82lX-6NXtObVGsH1-1" source="FufW82lX-6NXtObVGsH1-18" target="FufW82lX-6NXtObVGsH1-25" edge="1">
                    <mxGeometry relative="1" as="geometry"/>
                </mxCell>
                <mxCell id="FufW82lX-6NXtObVGsH1-18" value="&amp;lt;funcDef&amp;gt;" style="whiteSpace=wrap;html=1;rounded=1;" parent="FufW82lX-6NXtObVGsH1-1" vertex="1">
                    <mxGeometry x="261" y="522" width="120" height="60" as="geometry"/>
                </mxCell>
                <mxCell id="FufW82lX-6NXtObVGsH1-20" value="EPSILON" style="whiteSpace=wrap;html=1;rounded=1;" parent="FufW82lX-6NXtObVGsH1-1" vertex="1">
                    <mxGeometry x="453" y="478" width="120" height="60" as="geometry"/>
                </mxCell>
                <mxCell id="FufW82lX-6NXtObVGsH1-28" value="" style="edgeStyle=none;html=1;" parent="FufW82lX-6NXtObVGsH1-1" source="FufW82lX-6NXtObVGsH1-22" target="FufW82lX-6NXtObVGsH1-27" edge="1">
                    <mxGeometry relative="1" as="geometry"/>
                </mxCell>
                <mxCell id="FufW82lX-6NXtObVGsH1-30" value="" style="edgeStyle=none;html=1;" parent="FufW82lX-6NXtObVGsH1-1" source="FufW82lX-6NXtObVGsH1-22" target="FufW82lX-6NXtObVGsH1-29" edge="1">
                    <mxGeometry relative="1" as="geometry"/>
                </mxCell>
                <mxCell id="FufW82lX-6NXtObVGsH1-32" value="" style="edgeStyle=none;html=1;" parent="FufW82lX-6NXtObVGsH1-1" source="FufW82lX-6NXtObVGsH1-22" target="FufW82lX-6NXtObVGsH1-31" edge="1">
                    <mxGeometry relative="1" as="geometry"/>
                </mxCell>
                <mxCell id="FufW82lX-6NXtObVGsH1-34" value="" style="edgeStyle=none;html=1;" parent="FufW82lX-6NXtObVGsH1-1" source="FufW82lX-6NXtObVGsH1-22" target="FufW82lX-6NXtObVGsH1-33" edge="1">
                    <mxGeometry relative="1" as="geometry"/>
                </mxCell>
                <mxCell id="FufW82lX-6NXtObVGsH1-36" value="" style="edgeStyle=none;html=1;" parent="FufW82lX-6NXtObVGsH1-1" source="FufW82lX-6NXtObVGsH1-22" target="FufW82lX-6NXtObVGsH1-35" edge="1">
                    <mxGeometry relative="1" as="geometry"/>
                </mxCell>
                <mxCell id="FufW82lX-6NXtObVGsH1-38" value="" style="edgeStyle=none;html=1;" parent="FufW82lX-6NXtObVGsH1-1" source="FufW82lX-6NXtObVGsH1-22" target="FufW82lX-6NXtObVGsH1-37" edge="1">
                    <mxGeometry relative="1" as="geometry"/>
                </mxCell>
                <mxCell id="FufW82lX-6NXtObVGsH1-40" value="" style="edgeStyle=none;html=1;" parent="FufW82lX-6NXtObVGsH1-1" source="FufW82lX-6NXtObVGsH1-22" target="FufW82lX-6NXtObVGsH1-39" edge="1">
                    <mxGeometry relative="1" as="geometry"/>
                </mxCell>
                <mxCell id="FufW82lX-6NXtObVGsH1-22" value="&amp;lt;funcHead&amp;gt;" style="whiteSpace=wrap;html=1;rounded=1;" parent="FufW82lX-6NXtObVGsH1-1" vertex="1">
                    <mxGeometry x="185" y="652" width="120" height="60" as="geometry"/>
                </mxCell>
                <mxCell id="FufW82lX-6NXtObVGsH1-46" value="" style="edgeStyle=none;html=1;" parent="FufW82lX-6NXtObVGsH1-1" source="FufW82lX-6NXtObVGsH1-25" target="FufW82lX-6NXtObVGsH1-45" edge="1">
                    <mxGeometry relative="1" as="geometry"/>
                </mxCell>
                <mxCell id="FufW82lX-6NXtObVGsH1-48" value="" style="edgeStyle=none;html=1;" parent="FufW82lX-6NXtObVGsH1-1" source="FufW82lX-6NXtObVGsH1-25" target="FufW82lX-6NXtObVGsH1-47" edge="1">
                    <mxGeometry relative="1" as="geometry"/>
                </mxCell>
                <mxCell id="FufW82lX-6NXtObVGsH1-50" value="" style="edgeStyle=none;html=1;" parent="FufW82lX-6NXtObVGsH1-1" source="FufW82lX-6NXtObVGsH1-25" target="FufW82lX-6NXtObVGsH1-49" edge="1">
                    <mxGeometry relative="1" as="geometry"/>
                </mxCell>
                <mxCell id="FufW82lX-6NXtObVGsH1-25" value="&amp;lt;funcBody&amp;gt;" style="whiteSpace=wrap;html=1;rounded=1;" parent="FufW82lX-6NXtObVGsH1-1" vertex="1">
                    <mxGeometry x="836" y="652" width="120" height="60" as="geometry"/>
                </mxCell>
                <mxCell id="FufW82lX-6NXtObVGsH1-27" value="func" style="whiteSpace=wrap;html=1;rounded=1;" parent="FufW82lX-6NXtObVGsH1-1" vertex="1">
                    <mxGeometry x="-131" y="785" width="120" height="60" as="geometry"/>
                </mxCell>
                <mxCell id="FufW82lX-6NXtObVGsH1-29" value="id" style="whiteSpace=wrap;html=1;rounded=1;" parent="FufW82lX-6NXtObVGsH1-1" vertex="1">
                    <mxGeometry x="11" y="785" width="120" height="60" as="geometry"/>
                </mxCell>
                <mxCell id="FufW82lX-6NXtObVGsH1-31" value="(" style="whiteSpace=wrap;html=1;rounded=1;" parent="FufW82lX-6NXtObVGsH1-1" vertex="1">
                    <mxGeometry x="141" y="782" width="51" height="60" as="geometry"/>
                </mxCell>
                <mxCell id="FufW82lX-6NXtObVGsH1-33" value=")" style="whiteSpace=wrap;html=1;rounded=1;" parent="FufW82lX-6NXtObVGsH1-1" vertex="1">
                    <mxGeometry x="321" y="782" width="43" height="60" as="geometry"/>
                </mxCell>
                <mxCell id="FufW82lX-6NXtObVGsH1-42" value="" style="edgeStyle=none;html=1;" parent="FufW82lX-6NXtObVGsH1-1" source="FufW82lX-6NXtObVGsH1-35" target="FufW82lX-6NXtObVGsH1-41" edge="1">
                    <mxGeometry relative="1" as="geometry"/>
                </mxCell>
                <mxCell id="FufW82lX-6NXtObVGsH1-35" value="&amp;lt;fParams&amp;gt;" style="whiteSpace=wrap;html=1;rounded=1;" parent="FufW82lX-6NXtObVGsH1-1" vertex="1">
                    <mxGeometry x="195" y="782" width="120" height="60" as="geometry"/>
                </mxCell>
                <mxCell id="FufW82lX-6NXtObVGsH1-37" value="-&amp;gt;" style="whiteSpace=wrap;html=1;rounded=1;" parent="FufW82lX-6NXtObVGsH1-1" vertex="1">
                    <mxGeometry x="381" y="785" width="120" height="60" as="geometry"/>
                </mxCell>
                <mxCell id="FufW82lX-6NXtObVGsH1-44" value="" style="edgeStyle=none;html=1;" parent="FufW82lX-6NXtObVGsH1-1" source="FufW82lX-6NXtObVGsH1-39" target="FufW82lX-6NXtObVGsH1-43" edge="1">
                    <mxGeometry relative="1" as="geometry"/>
                </mxCell>
                <mxCell id="FufW82lX-6NXtObVGsH1-39" value="&amp;lt;returnType&amp;gt;" style="whiteSpace=wrap;html=1;rounded=1;" parent="FufW82lX-6NXtObVGsH1-1" vertex="1">
                    <mxGeometry x="518" y="785" width="120" height="60" as="geometry"/>
                </mxCell>
                <mxCell id="FufW82lX-6NXtObVGsH1-41" value="EPSILON" style="whiteSpace=wrap;html=1;rounded=1;" parent="FufW82lX-6NXtObVGsH1-1" vertex="1">
                    <mxGeometry x="195" y="875" width="120" height="60" as="geometry"/>
                </mxCell>
                <mxCell id="FufW82lX-6NXtObVGsH1-43" value="void" style="whiteSpace=wrap;html=1;rounded=1;" parent="FufW82lX-6NXtObVGsH1-1" vertex="1">
                    <mxGeometry x="518" y="879" width="120" height="60" as="geometry"/>
                </mxCell>
                <mxCell id="FufW82lX-6NXtObVGsH1-45" value="{" style="whiteSpace=wrap;html=1;rounded=1;" parent="FufW82lX-6NXtObVGsH1-1" vertex="1">
                    <mxGeometry x="718" y="782" width="50" height="60" as="geometry"/>
                </mxCell>
                <mxCell id="FufW82lX-6NXtObVGsH1-47" value="}" style="whiteSpace=wrap;html=1;rounded=1;" parent="FufW82lX-6NXtObVGsH1-1" vertex="1">
                    <mxGeometry x="1022" y="782" width="42" height="60" as="geometry"/>
                </mxCell>
                <mxCell id="FufW82lX-6NXtObVGsH1-52" value="" style="edgeStyle=none;html=1;" parent="FufW82lX-6NXtObVGsH1-1" source="FufW82lX-6NXtObVGsH1-49" target="FufW82lX-6NXtObVGsH1-51" edge="1">
                    <mxGeometry relative="1" as="geometry"/>
                </mxCell>
                <mxCell id="FufW82lX-6NXtObVGsH1-55" value="" style="edgeStyle=none;html=1;" parent="FufW82lX-6NXtObVGsH1-1" source="FufW82lX-6NXtObVGsH1-49" target="FufW82lX-6NXtObVGsH1-54" edge="1">
                    <mxGeometry relative="1" as="geometry"/>
                </mxCell>
                <mxCell id="FufW82lX-6NXtObVGsH1-49" value="&amp;lt;rept-funcBody1&amp;gt;" style="whiteSpace=wrap;html=1;rounded=1;" parent="FufW82lX-6NXtObVGsH1-1" vertex="1">
                    <mxGeometry x="836" y="782" width="120" height="60" as="geometry"/>
                </mxCell>
                <mxCell id="FufW82lX-6NXtObVGsH1-59" value="" style="edgeStyle=none;html=1;" parent="FufW82lX-6NXtObVGsH1-1" source="FufW82lX-6NXtObVGsH1-51" target="FufW82lX-6NXtObVGsH1-58" edge="1">
                    <mxGeometry relative="1" as="geometry"/>
                </mxCell>
                <mxCell id="FufW82lX-6NXtObVGsH1-51" value="&amp;lt;varDeclOrStat&amp;gt;" style="whiteSpace=wrap;html=1;rounded=1;" parent="FufW82lX-6NXtObVGsH1-1" vertex="1">
                    <mxGeometry x="758" y="879" width="120" height="60" as="geometry"/>
                </mxCell>
                <mxCell id="FufW82lX-6NXtObVGsH1-57" value="" style="edgeStyle=none;html=1;" parent="FufW82lX-6NXtObVGsH1-1" source="FufW82lX-6NXtObVGsH1-54" target="FufW82lX-6NXtObVGsH1-56" edge="1">
                    <mxGeometry relative="1" as="geometry"/>
                </mxCell>
                <mxCell id="FufW82lX-6NXtObVGsH1-54" value="&amp;lt;rept-funcBody1&amp;gt;" style="whiteSpace=wrap;html=1;rounded=1;" parent="FufW82lX-6NXtObVGsH1-1" vertex="1">
                    <mxGeometry x="898" y="879" width="120" height="60" as="geometry"/>
                </mxCell>
                <mxCell id="FufW82lX-6NXtObVGsH1-56" value="EPSILON" style="whiteSpace=wrap;html=1;rounded=1;" parent="FufW82lX-6NXtObVGsH1-1" vertex="1">
                    <mxGeometry x="898" y="967" width="120" height="60" as="geometry"/>
                </mxCell>
                <mxCell id="FufW82lX-6NXtObVGsH1-62" value="" style="edgeStyle=none;html=1;" parent="FufW82lX-6NXtObVGsH1-1" source="FufW82lX-6NXtObVGsH1-58" target="FufW82lX-6NXtObVGsH1-61" edge="1">
                    <mxGeometry relative="1" as="geometry"/>
                </mxCell>
                <mxCell id="FufW82lX-6NXtObVGsH1-66" value="" style="edgeStyle=none;html=1;" parent="FufW82lX-6NXtObVGsH1-1" source="FufW82lX-6NXtObVGsH1-58" target="FufW82lX-6NXtObVGsH1-65" edge="1">
                    <mxGeometry relative="1" as="geometry"/>
                </mxCell>
                <mxCell id="FufW82lX-6NXtObVGsH1-68" value="" style="edgeStyle=none;html=1;" parent="FufW82lX-6NXtObVGsH1-1" source="FufW82lX-6NXtObVGsH1-58" target="FufW82lX-6NXtObVGsH1-67" edge="1">
                    <mxGeometry relative="1" as="geometry"/>
                </mxCell>
                <mxCell id="FufW82lX-6NXtObVGsH1-70" value="" style="edgeStyle=none;html=1;" parent="FufW82lX-6NXtObVGsH1-1" source="FufW82lX-6NXtObVGsH1-58" target="FufW82lX-6NXtObVGsH1-69" edge="1">
                    <mxGeometry relative="1" as="geometry"/>
                </mxCell>
                <mxCell id="FufW82lX-6NXtObVGsH1-72" value="" style="edgeStyle=none;html=1;" parent="FufW82lX-6NXtObVGsH1-1" source="FufW82lX-6NXtObVGsH1-58" target="FufW82lX-6NXtObVGsH1-71" edge="1">
                    <mxGeometry relative="1" as="geometry"/>
                </mxCell>
                <mxCell id="FufW82lX-6NXtObVGsH1-58" value="&amp;lt;statement&amp;gt;" style="whiteSpace=wrap;html=1;rounded=1;" parent="FufW82lX-6NXtObVGsH1-1" vertex="1">
                    <mxGeometry x="758" y="967" width="120" height="60" as="geometry"/>
                </mxCell>
                <mxCell id="FufW82lX-6NXtObVGsH1-61" value="write" style="whiteSpace=wrap;html=1;rounded=1;" parent="FufW82lX-6NXtObVGsH1-1" vertex="1">
                    <mxGeometry x="607" y="1065" width="120" height="60" as="geometry"/>
                </mxCell>
                <mxCell id="FufW82lX-6NXtObVGsH1-65" value="(" style="whiteSpace=wrap;html=1;rounded=1;" parent="FufW82lX-6NXtObVGsH1-1" vertex="1">
                    <mxGeometry x="737" y="1061" width="51" height="60" as="geometry"/>
                </mxCell>
                <mxCell id="FufW82lX-6NXtObVGsH1-67" value=")" style="whiteSpace=wrap;html=1;rounded=1;" parent="FufW82lX-6NXtObVGsH1-1" vertex="1">
                    <mxGeometry x="883" y="1059" width="52" height="60" as="geometry"/>
                </mxCell>
                <mxCell id="FufW82lX-6NXtObVGsH1-69" value=";" style="whiteSpace=wrap;html=1;rounded=1;" parent="FufW82lX-6NXtObVGsH1-1" vertex="1">
                    <mxGeometry x="981" y="1059" width="30" height="60" as="geometry"/>
                </mxCell>
                <mxCell id="FufW82lX-6NXtObVGsH1-74" value="" style="edgeStyle=none;html=1;" parent="FufW82lX-6NXtObVGsH1-1" source="FufW82lX-6NXtObVGsH1-71" target="FufW82lX-6NXtObVGsH1-73" edge="1">
                    <mxGeometry relative="1" as="geometry"/>
                </mxCell>
                <mxCell id="FufW82lX-6NXtObVGsH1-76" value="" style="edgeStyle=none;html=1;" parent="FufW82lX-6NXtObVGsH1-1" source="FufW82lX-6NXtObVGsH1-71" target="FufW82lX-6NXtObVGsH1-75" edge="1">
                    <mxGeometry relative="1" as="geometry"/>
                </mxCell>
                <mxCell id="FufW82lX-6NXtObVGsH1-71" value="&amp;lt;expr&amp;gt;" style="whiteSpace=wrap;html=1;rounded=1;" parent="FufW82lX-6NXtObVGsH1-1" vertex="1">
                    <mxGeometry x="791" y="1061" width="84" height="60" as="geometry"/>
                </mxCell>
                <mxCell id="FufW82lX-6NXtObVGsH1-78" value="" style="edgeStyle=none;html=1;" parent="FufW82lX-6NXtObVGsH1-1" source="FufW82lX-6NXtObVGsH1-73" target="FufW82lX-6NXtObVGsH1-77" edge="1">
                    <mxGeometry relative="1" as="geometry"/>
                </mxCell>
                <mxCell id="FufW82lX-6NXtObVGsH1-80" value="" style="edgeStyle=none;html=1;" parent="FufW82lX-6NXtObVGsH1-1" source="FufW82lX-6NXtObVGsH1-73" target="FufW82lX-6NXtObVGsH1-79" edge="1">
                    <mxGeometry relative="1" as="geometry"/>
                </mxCell>
                <mxCell id="FufW82lX-6NXtObVGsH1-73" value="&amp;lt;arithExpr&amp;gt;" style="whiteSpace=wrap;html=1;rounded=1;" parent="FufW82lX-6NXtObVGsH1-1" vertex="1">
                    <mxGeometry x="683" y="1156" width="120" height="60" as="geometry"/>
                </mxCell>
                <mxCell id="FufW82lX-6NXtObVGsH1-96" value="" style="edgeStyle=none;html=1;" parent="FufW82lX-6NXtObVGsH1-1" source="FufW82lX-6NXtObVGsH1-75" target="FufW82lX-6NXtObVGsH1-95" edge="1">
                    <mxGeometry relative="1" as="geometry"/>
                </mxCell>
                <mxCell id="FufW82lX-6NXtObVGsH1-75" value="&amp;lt;arithOrRelExpr-disambiguate&amp;gt;" style="whiteSpace=wrap;html=1;rounded=1;" parent="FufW82lX-6NXtObVGsH1-1" vertex="1">
                    <mxGeometry x="824" y="1156" width="194" height="60" as="geometry"/>
                </mxCell>
                <mxCell id="FufW82lX-6NXtObVGsH1-82" value="" style="edgeStyle=none;html=1;" parent="FufW82lX-6NXtObVGsH1-1" source="FufW82lX-6NXtObVGsH1-77" target="FufW82lX-6NXtObVGsH1-81" edge="1">
                    <mxGeometry relative="1" as="geometry"/>
                </mxCell>
                <mxCell id="FufW82lX-6NXtObVGsH1-84" value="" style="edgeStyle=none;html=1;" parent="FufW82lX-6NXtObVGsH1-1" source="FufW82lX-6NXtObVGsH1-77" target="FufW82lX-6NXtObVGsH1-83" edge="1">
                    <mxGeometry relative="1" as="geometry"/>
                </mxCell>
                <mxCell id="FufW82lX-6NXtObVGsH1-77" value="&amp;lt;term&amp;gt;" style="whiteSpace=wrap;html=1;rounded=1;" parent="FufW82lX-6NXtObVGsH1-1" vertex="1">
                    <mxGeometry x="546" y="1273" width="120" height="60" as="geometry"/>
                </mxCell>
                <mxCell id="FufW82lX-6NXtObVGsH1-90" value="" style="edgeStyle=none;html=1;" parent="FufW82lX-6NXtObVGsH1-1" source="FufW82lX-6NXtObVGsH1-79" target="FufW82lX-6NXtObVGsH1-89" edge="1">
                    <mxGeometry relative="1" as="geometry"/>
                </mxCell>
                <mxCell id="FufW82lX-6NXtObVGsH1-92" value="" style="edgeStyle=none;html=1;" parent="FufW82lX-6NXtObVGsH1-1" source="FufW82lX-6NXtObVGsH1-79" target="FufW82lX-6NXtObVGsH1-91" edge="1">
                    <mxGeometry relative="1" as="geometry"/>
                </mxCell>
                <mxCell id="FufW82lX-6NXtObVGsH1-94" value="" style="edgeStyle=none;html=1;" parent="FufW82lX-6NXtObVGsH1-1" source="FufW82lX-6NXtObVGsH1-79" target="FufW82lX-6NXtObVGsH1-93" edge="1">
                    <mxGeometry relative="1" as="geometry"/>
                </mxCell>
                <mxCell id="FufW82lX-6NXtObVGsH1-79" value="&amp;lt;rightrec-arithExpr&amp;gt;" style="whiteSpace=wrap;html=1;rounded=1;" parent="FufW82lX-6NXtObVGsH1-1" vertex="1">
                    <mxGeometry x="683" y="1273" width="120" height="60" as="geometry"/>
                </mxCell>
                <mxCell id="FufW82lX-6NXtObVGsH1-86" value="" style="edgeStyle=none;html=1;" parent="FufW82lX-6NXtObVGsH1-1" source="FufW82lX-6NXtObVGsH1-81" target="FufW82lX-6NXtObVGsH1-85" edge="1">
                    <mxGeometry relative="1" as="geometry"/>
                </mxCell>
                <mxCell id="FufW82lX-6NXtObVGsH1-81" value="&amp;lt;factor&amp;gt;" style="whiteSpace=wrap;html=1;rounded=1;" parent="FufW82lX-6NXtObVGsH1-1" vertex="1">
                    <mxGeometry x="401" y="1395" width="120" height="60" as="geometry"/>
                </mxCell>
                <mxCell id="FufW82lX-6NXtObVGsH1-88" value="" style="edgeStyle=none;html=1;" parent="FufW82lX-6NXtObVGsH1-1" source="FufW82lX-6NXtObVGsH1-83" target="FufW82lX-6NXtObVGsH1-87" edge="1">
                    <mxGeometry relative="1" as="geometry"/>
                </mxCell>
                <mxCell id="FufW82lX-6NXtObVGsH1-83" value="&amp;lt;rightrec-term&amp;gt;" style="whiteSpace=wrap;html=1;rounded=1;" parent="FufW82lX-6NXtObVGsH1-1" vertex="1">
                    <mxGeometry x="546" y="1395" width="120" height="60" as="geometry"/>
                </mxCell>
                <mxCell id="FufW82lX-6NXtObVGsH1-109" value="" style="edgeStyle=none;html=1;" parent="FufW82lX-6NXtObVGsH1-1" source="FufW82lX-6NXtObVGsH1-85" target="FufW82lX-6NXtObVGsH1-108" edge="1">
                    <mxGeometry relative="1" as="geometry"/>
                </mxCell>
                <mxCell id="FufW82lX-6NXtObVGsH1-111" value="" style="edgeStyle=none;html=1;" parent="FufW82lX-6NXtObVGsH1-1" source="FufW82lX-6NXtObVGsH1-85" target="FufW82lX-6NXtObVGsH1-110" edge="1">
                    <mxGeometry relative="1" as="geometry"/>
                </mxCell>
                <mxCell id="FufW82lX-6NXtObVGsH1-85" value="&amp;lt;varOrFuncCall&amp;gt;" style="whiteSpace=wrap;html=1;rounded=1;" parent="FufW82lX-6NXtObVGsH1-1" vertex="1">
                    <mxGeometry x="401" y="1483" width="120" height="60" as="geometry"/>
                </mxCell>
                <mxCell id="FufW82lX-6NXtObVGsH1-87" value="EPSILON" style="whiteSpace=wrap;html=1;rounded=1;" parent="FufW82lX-6NXtObVGsH1-1" vertex="1">
                    <mxGeometry x="546" y="1483" width="120" height="60" as="geometry"/>
                </mxCell>
                <mxCell id="FufW82lX-6NXtObVGsH1-98" value="" style="edgeStyle=none;html=1;" parent="FufW82lX-6NXtObVGsH1-1" source="FufW82lX-6NXtObVGsH1-89" target="FufW82lX-6NXtObVGsH1-97" edge="1">
                    <mxGeometry relative="1" as="geometry"/>
                </mxCell>
                <mxCell id="FufW82lX-6NXtObVGsH1-89" value="&amp;lt;addOp&amp;gt;" style="whiteSpace=wrap;html=1;rounded=1;" parent="FufW82lX-6NXtObVGsH1-1" vertex="1">
                    <mxGeometry x="683" y="1393" width="120" height="60" as="geometry"/>
                </mxCell>
                <mxCell id="FufW82lX-6NXtObVGsH1-105" style="edgeStyle=none;html=1;" parent="FufW82lX-6NXtObVGsH1-1" source="FufW82lX-6NXtObVGsH1-91" target="FufW82lX-6NXtObVGsH1-100" edge="1">
                    <mxGeometry relative="1" as="geometry"/>
                </mxCell>
                <mxCell id="FufW82lX-6NXtObVGsH1-107" style="edgeStyle=none;html=1;" parent="FufW82lX-6NXtObVGsH1-1" source="FufW82lX-6NXtObVGsH1-91" target="FufW82lX-6NXtObVGsH1-102" edge="1">
                    <mxGeometry relative="1" as="geometry"/>
                </mxCell>
                <mxCell id="FufW82lX-6NXtObVGsH1-91" value="&amp;lt;term&amp;gt;" style="whiteSpace=wrap;html=1;rounded=1;" parent="FufW82lX-6NXtObVGsH1-1" vertex="1">
                    <mxGeometry x="810" y="1390" width="120" height="60" as="geometry"/>
                </mxCell>
                <mxCell id="FufW82lX-6NXtObVGsH1-117" value="" style="edgeStyle=none;html=1;" parent="FufW82lX-6NXtObVGsH1-1" source="FufW82lX-6NXtObVGsH1-93" target="FufW82lX-6NXtObVGsH1-116" edge="1">
                    <mxGeometry relative="1" as="geometry"/>
                </mxCell>
                <mxCell id="FufW82lX-6NXtObVGsH1-93" value="&amp;lt;rightrec-arithExpr&amp;gt;" style="whiteSpace=wrap;html=1;rounded=1;" parent="FufW82lX-6NXtObVGsH1-1" vertex="1">
                    <mxGeometry x="947" y="1390" width="120" height="60" as="geometry"/>
                </mxCell>
                <mxCell id="FufW82lX-6NXtObVGsH1-95" value="EPSILON" style="whiteSpace=wrap;html=1;rounded=1;" parent="FufW82lX-6NXtObVGsH1-1" vertex="1">
                    <mxGeometry x="863" y="1268" width="120" height="60" as="geometry"/>
                </mxCell>
                <mxCell id="FufW82lX-6NXtObVGsH1-97" value="+" style="whiteSpace=wrap;html=1;rounded=1;" parent="FufW82lX-6NXtObVGsH1-1" vertex="1">
                    <mxGeometry x="724" y="1483" width="38" height="60" as="geometry"/>
                </mxCell>
                <mxCell id="FufW82lX-6NXtObVGsH1-99" value="" style="edgeStyle=none;html=1;" parent="FufW82lX-6NXtObVGsH1-1" source="FufW82lX-6NXtObVGsH1-100" target="FufW82lX-6NXtObVGsH1-120" edge="1">
                    <mxGeometry relative="1" as="geometry">
                        <mxPoint x="870" y="1619" as="targetPoint"/>
                    </mxGeometry>
                </mxCell>
                <mxCell id="FufW82lX-6NXtObVGsH1-100" value="&amp;lt;factor&amp;gt;" style="whiteSpace=wrap;html=1;rounded=1;" parent="FufW82lX-6NXtObVGsH1-1" vertex="1">
                    <mxGeometry x="810" y="1529" width="120" height="60" as="geometry"/>
                </mxCell>
                <mxCell id="FufW82lX-6NXtObVGsH1-134" style="edgeStyle=none;html=1;" parent="FufW82lX-6NXtObVGsH1-1" source="FufW82lX-6NXtObVGsH1-102" target="FufW82lX-6NXtObVGsH1-131" edge="1">
                    <mxGeometry relative="1" as="geometry"/>
                </mxCell>
                <mxCell id="FufW82lX-6NXtObVGsH1-135" style="edgeStyle=none;html=1;" parent="FufW82lX-6NXtObVGsH1-1" source="FufW82lX-6NXtObVGsH1-102" target="FufW82lX-6NXtObVGsH1-132" edge="1">
                    <mxGeometry relative="1" as="geometry"/>
                </mxCell>
                <mxCell id="FufW82lX-6NXtObVGsH1-136" style="edgeStyle=none;html=1;" parent="FufW82lX-6NXtObVGsH1-1" source="FufW82lX-6NXtObVGsH1-102" target="FufW82lX-6NXtObVGsH1-133" edge="1">
                    <mxGeometry relative="1" as="geometry"/>
                </mxCell>
                <mxCell id="FufW82lX-6NXtObVGsH1-102" value="&amp;lt;rightrec-term&amp;gt;" style="whiteSpace=wrap;html=1;rounded=1;" parent="FufW82lX-6NXtObVGsH1-1" vertex="1">
                    <mxGeometry x="1131" y="1529" width="120" height="60" as="geometry"/>
                </mxCell>
                <mxCell id="FufW82lX-6NXtObVGsH1-108" value="id" style="whiteSpace=wrap;html=1;rounded=1;" parent="FufW82lX-6NXtObVGsH1-1" vertex="1">
                    <mxGeometry x="286" y="1582" width="61" height="60" as="geometry"/>
                </mxCell>
                <mxCell id="FufW82lX-6NXtObVGsH1-113" value="" style="edgeStyle=none;html=1;" parent="FufW82lX-6NXtObVGsH1-1" source="FufW82lX-6NXtObVGsH1-110" target="FufW82lX-6NXtObVGsH1-112" edge="1">
                    <mxGeometry relative="1" as="geometry"/>
                </mxCell>
                <mxCell id="FufW82lX-6NXtObVGsH1-110" value="&amp;lt;varOrFuncCall-disambiguate&amp;gt;" style="whiteSpace=wrap;html=1;rounded=1;" parent="FufW82lX-6NXtObVGsH1-1" vertex="1">
                    <mxGeometry x="376" y="1582" width="193" height="60" as="geometry"/>
                </mxCell>
                <mxCell id="FufW82lX-6NXtObVGsH1-115" value="" style="edgeStyle=none;html=1;" parent="FufW82lX-6NXtObVGsH1-1" source="FufW82lX-6NXtObVGsH1-112" target="FufW82lX-6NXtObVGsH1-114" edge="1">
                    <mxGeometry relative="1" as="geometry"/>
                </mxCell>
                <mxCell id="FufW82lX-6NXtObVGsH1-112" value="&amp;lt;another&amp;gt;" style="whiteSpace=wrap;html=1;rounded=1;" parent="FufW82lX-6NXtObVGsH1-1" vertex="1">
                    <mxGeometry x="412.5" y="1663" width="120" height="60" as="geometry"/>
                </mxCell>
                <mxCell id="FufW82lX-6NXtObVGsH1-114" value="EPSILON" style="whiteSpace=wrap;html=1;rounded=1;" parent="FufW82lX-6NXtObVGsH1-1" vertex="1">
                    <mxGeometry x="412.5" y="1747" width="120" height="60" as="geometry"/>
                </mxCell>
                <mxCell id="FufW82lX-6NXtObVGsH1-116" value="EPSILON" style="whiteSpace=wrap;html=1;rounded=1;" parent="FufW82lX-6NXtObVGsH1-1" vertex="1">
                    <mxGeometry x="1115" y="1443" width="120" height="60" as="geometry"/>
                </mxCell>
                <mxCell id="FufW82lX-6NXtObVGsH1-118" value="" style="edgeStyle=none;html=1;" parent="FufW82lX-6NXtObVGsH1-1" source="FufW82lX-6NXtObVGsH1-120" target="FufW82lX-6NXtObVGsH1-121" edge="1">
                    <mxGeometry relative="1" as="geometry"/>
                </mxCell>
                <mxCell id="FufW82lX-6NXtObVGsH1-119" value="" style="edgeStyle=none;html=1;" parent="FufW82lX-6NXtObVGsH1-1" source="FufW82lX-6NXtObVGsH1-120" target="FufW82lX-6NXtObVGsH1-123" edge="1">
                    <mxGeometry relative="1" as="geometry"/>
                </mxCell>
                <mxCell id="FufW82lX-6NXtObVGsH1-120" value="&amp;lt;varOrFuncCall&amp;gt;" style="whiteSpace=wrap;html=1;rounded=1;" parent="FufW82lX-6NXtObVGsH1-1" vertex="1">
                    <mxGeometry x="810" y="1615" width="120" height="60" as="geometry"/>
                </mxCell>
                <mxCell id="FufW82lX-6NXtObVGsH1-121" value="id" style="whiteSpace=wrap;html=1;rounded=1;" parent="FufW82lX-6NXtObVGsH1-1" vertex="1">
                    <mxGeometry x="695" y="1714" width="61" height="60" as="geometry"/>
                </mxCell>
                <mxCell id="FufW82lX-6NXtObVGsH1-122" value="" style="edgeStyle=none;html=1;" parent="FufW82lX-6NXtObVGsH1-1" source="FufW82lX-6NXtObVGsH1-123" target="FufW82lX-6NXtObVGsH1-125" edge="1">
                    <mxGeometry relative="1" as="geometry"/>
                </mxCell>
                <mxCell id="FufW82lX-6NXtObVGsH1-123" value="&amp;lt;varOrFuncCall-disambiguate&amp;gt;" style="whiteSpace=wrap;html=1;rounded=1;" parent="FufW82lX-6NXtObVGsH1-1" vertex="1">
                    <mxGeometry x="785" y="1714" width="193" height="60" as="geometry"/>
                </mxCell>
                <mxCell id="FufW82lX-6NXtObVGsH1-124" value="" style="edgeStyle=none;html=1;" parent="FufW82lX-6NXtObVGsH1-1" source="FufW82lX-6NXtObVGsH1-125" target="FufW82lX-6NXtObVGsH1-126" edge="1">
                    <mxGeometry relative="1" as="geometry"/>
                </mxCell>
                <mxCell id="FufW82lX-6NXtObVGsH1-125" value="&amp;lt;another&amp;gt;" style="whiteSpace=wrap;html=1;rounded=1;" parent="FufW82lX-6NXtObVGsH1-1" vertex="1">
                    <mxGeometry x="821.5" y="1795" width="120" height="60" as="geometry"/>
                </mxCell>
                <mxCell id="FufW82lX-6NXtObVGsH1-126" value="EPSILON" style="whiteSpace=wrap;html=1;rounded=1;" parent="FufW82lX-6NXtObVGsH1-1" vertex="1">
                    <mxGeometry x="821.5" y="1879" width="120" height="60" as="geometry"/>
                </mxCell>
                <mxCell id="FufW82lX-6NXtObVGsH1-140" value="" style="edgeStyle=none;html=1;" parent="FufW82lX-6NXtObVGsH1-1" source="FufW82lX-6NXtObVGsH1-131" target="FufW82lX-6NXtObVGsH1-139" edge="1">
                    <mxGeometry relative="1" as="geometry"/>
                </mxCell>
                <mxCell id="FufW82lX-6NXtObVGsH1-131" value="&amp;lt;multOp&amp;gt;" style="whiteSpace=wrap;html=1;rounded=1;" parent="FufW82lX-6NXtObVGsH1-1" vertex="1">
                    <mxGeometry x="1005" y="1656" width="120" height="60" as="geometry"/>
                </mxCell>
                <mxCell id="FufW82lX-6NXtObVGsH1-132" value="&amp;lt;factor&amp;gt;" style="whiteSpace=wrap;html=1;rounded=1;" parent="FufW82lX-6NXtObVGsH1-1" vertex="1">
                    <mxGeometry x="1150" y="1656" width="120" height="60" as="geometry"/>
                </mxCell>
                <mxCell id="FufW82lX-6NXtObVGsH1-138" value="" style="edgeStyle=none;html=1;" parent="FufW82lX-6NXtObVGsH1-1" source="FufW82lX-6NXtObVGsH1-133" target="FufW82lX-6NXtObVGsH1-137" edge="1">
                    <mxGeometry relative="1" as="geometry"/>
                </mxCell>
                <mxCell id="FufW82lX-6NXtObVGsH1-133" value="&amp;lt;rightrec-term&amp;gt;" style="whiteSpace=wrap;html=1;rounded=1;" parent="FufW82lX-6NXtObVGsH1-1" vertex="1">
                    <mxGeometry x="1295" y="1656" width="120" height="60" as="geometry"/>
                </mxCell>
                <mxCell id="FufW82lX-6NXtObVGsH1-137" value="EPSILON" style="whiteSpace=wrap;html=1;rounded=1;" parent="FufW82lX-6NXtObVGsH1-1" vertex="1">
                    <mxGeometry x="1295" y="1735" width="120" height="60" as="geometry"/>
                </mxCell>
                <mxCell id="FufW82lX-6NXtObVGsH1-139" value="&lt;font style=&quot;font-size: 21px&quot;&gt;*&lt;/font&gt;" style="whiteSpace=wrap;html=1;rounded=1;" parent="FufW82lX-6NXtObVGsH1-1" vertex="1">
                    <mxGeometry x="1043.5" y="1739" width="43" height="60" as="geometry"/>
                </mxCell>
                <mxCell id="FufW82lX-6NXtObVGsH1-141" value="" style="edgeStyle=none;html=1;" parent="FufW82lX-6NXtObVGsH1-1" source="FufW82lX-6NXtObVGsH1-132" target="FufW82lX-6NXtObVGsH1-144" edge="1">
                    <mxGeometry relative="1" as="geometry">
                        <mxPoint x="1208.5" y="1768" as="sourcePoint"/>
                        <mxPoint x="1208.5" y="1798" as="targetPoint"/>
                    </mxGeometry>
                </mxCell>
                <mxCell id="FufW82lX-6NXtObVGsH1-142" value="" style="edgeStyle=none;html=1;" parent="FufW82lX-6NXtObVGsH1-1" source="FufW82lX-6NXtObVGsH1-144" target="FufW82lX-6NXtObVGsH1-145" edge="1">
                    <mxGeometry relative="1" as="geometry"/>
                </mxCell>
                <mxCell id="FufW82lX-6NXtObVGsH1-143" value="" style="edgeStyle=none;html=1;" parent="FufW82lX-6NXtObVGsH1-1" source="FufW82lX-6NXtObVGsH1-144" target="FufW82lX-6NXtObVGsH1-147" edge="1">
                    <mxGeometry relative="1" as="geometry"/>
                </mxCell>
                <mxCell id="FufW82lX-6NXtObVGsH1-144" value="&amp;lt;varOrFuncCall&amp;gt;" style="whiteSpace=wrap;html=1;rounded=1;" parent="FufW82lX-6NXtObVGsH1-1" vertex="1">
                    <mxGeometry x="1148.5" y="1739" width="120" height="60" as="geometry"/>
                </mxCell>
                <mxCell id="FufW82lX-6NXtObVGsH1-145" value="id" style="whiteSpace=wrap;html=1;rounded=1;" parent="FufW82lX-6NXtObVGsH1-1" vertex="1">
                    <mxGeometry x="1033.5" y="1838" width="61" height="60" as="geometry"/>
                </mxCell>
                <mxCell id="FufW82lX-6NXtObVGsH1-146" value="" style="edgeStyle=none;html=1;" parent="FufW82lX-6NXtObVGsH1-1" source="FufW82lX-6NXtObVGsH1-147" target="FufW82lX-6NXtObVGsH1-149" edge="1">
                    <mxGeometry relative="1" as="geometry"/>
                </mxCell>
                <mxCell id="FufW82lX-6NXtObVGsH1-147" value="&amp;lt;varOrFuncCall-disambiguate&amp;gt;" style="whiteSpace=wrap;html=1;rounded=1;" parent="FufW82lX-6NXtObVGsH1-1" vertex="1">
                    <mxGeometry x="1123.5" y="1838" width="193" height="60" as="geometry"/>
                </mxCell>
                <mxCell id="FufW82lX-6NXtObVGsH1-148" value="" style="edgeStyle=none;html=1;" parent="FufW82lX-6NXtObVGsH1-1" source="FufW82lX-6NXtObVGsH1-149" target="FufW82lX-6NXtObVGsH1-150" edge="1">
                    <mxGeometry relative="1" as="geometry"/>
                </mxCell>
                <mxCell id="FufW82lX-6NXtObVGsH1-149" value="&amp;lt;another&amp;gt;" style="whiteSpace=wrap;html=1;rounded=1;" parent="FufW82lX-6NXtObVGsH1-1" vertex="1">
                    <mxGeometry x="1160" y="1919" width="120" height="60" as="geometry"/>
                </mxCell>
                <mxCell id="FufW82lX-6NXtObVGsH1-150" value="EPSILON" style="whiteSpace=wrap;html=1;rounded=1;" parent="FufW82lX-6NXtObVGsH1-1" vertex="1">
                    <mxGeometry x="1160" y="2003" width="120" height="60" as="geometry"/>
                </mxCell>
                <mxCell id="jEJxTaoZ7Qc-uzFWmZJ--0" value="ID_MAKENODE" style="text;html=1;align=center;verticalAlign=middle;resizable=0;points=[];autosize=1;strokeColor=none;fillColor=none;" parent="FufW82lX-6NXtObVGsH1-1" vertex="1">
                    <mxGeometry x="635" y="1688" width="97" height="18" as="geometry"/>
                </mxCell>
                <mxCell id="7kuUUxd4Vx1_qMjfsYsJ-0" value="" style="edgeStyle=none;html=1;" parent="FufW82lX-6NXtObVGsH1-1" source="7kuUUxd4Vx1_qMjfsYsJ-4" target="7kuUUxd4Vx1_qMjfsYsJ-7" edge="1">
                    <mxGeometry relative="1" as="geometry"/>
                </mxCell>
                <mxCell id="7kuUUxd4Vx1_qMjfsYsJ-1" value="" style="edgeStyle=none;html=1;" parent="FufW82lX-6NXtObVGsH1-1" source="7kuUUxd4Vx1_qMjfsYsJ-4" target="7kuUUxd4Vx1_qMjfsYsJ-7" edge="1">
                    <mxGeometry relative="1" as="geometry"/>
                </mxCell>
                <mxCell id="7kuUUxd4Vx1_qMjfsYsJ-2" value="" style="edgeStyle=none;html=1;" parent="FufW82lX-6NXtObVGsH1-1" source="7kuUUxd4Vx1_qMjfsYsJ-4" target="7kuUUxd4Vx1_qMjfsYsJ-7" edge="1">
                    <mxGeometry relative="1" as="geometry"/>
                </mxCell>
                <mxCell id="7kuUUxd4Vx1_qMjfsYsJ-3" value="" style="edgeStyle=none;html=1;" parent="FufW82lX-6NXtObVGsH1-1" source="7kuUUxd4Vx1_qMjfsYsJ-4" target="7kuUUxd4Vx1_qMjfsYsJ-7" edge="1">
                    <mxGeometry relative="1" as="geometry"/>
                </mxCell>
                <mxCell id="7kuUUxd4Vx1_qMjfsYsJ-4" value="&amp;lt;prog&amp;gt;" style="rounded=1;whiteSpace=wrap;html=1;" parent="FufW82lX-6NXtObVGsH1-1" vertex="1">
                    <mxGeometry x="148" y="2372" width="120" height="60" as="geometry"/>
                </mxCell>
                <mxCell id="7kuUUxd4Vx1_qMjfsYsJ-5" style="edgeStyle=none;html=1;exitX=0.5;exitY=1;exitDx=0;exitDy=0;entryX=0.5;entryY=0;entryDx=0;entryDy=0;" parent="FufW82lX-6NXtObVGsH1-1" source="7kuUUxd4Vx1_qMjfsYsJ-7" target="7kuUUxd4Vx1_qMjfsYsJ-9" edge="1">
                    <mxGeometry relative="1" as="geometry"/>
                </mxCell>
                <mxCell id="7kuUUxd4Vx1_qMjfsYsJ-6" value="" style="edgeStyle=none;html=1;" parent="FufW82lX-6NXtObVGsH1-1" source="7kuUUxd4Vx1_qMjfsYsJ-7" target="7kuUUxd4Vx1_qMjfsYsJ-11" edge="1">
                    <mxGeometry relative="1" as="geometry"/>
                </mxCell>
                <mxCell id="7kuUUxd4Vx1_qMjfsYsJ-7" value="rept-prog0" style="rounded=1;whiteSpace=wrap;html=1;" parent="FufW82lX-6NXtObVGsH1-1" vertex="1">
                    <mxGeometry x="148" y="2510" width="120" height="60" as="geometry"/>
                </mxCell>
                <mxCell id="7kuUUxd4Vx1_qMjfsYsJ-8" value="" style="edgeStyle=none;html=1;" parent="FufW82lX-6NXtObVGsH1-1" source="7kuUUxd4Vx1_qMjfsYsJ-9" edge="1">
                    <mxGeometry relative="1" as="geometry">
                        <mxPoint x="307" y="2719" as="targetPoint"/>
                    </mxGeometry>
                </mxCell>
                <mxCell id="7kuUUxd4Vx1_qMjfsYsJ-9" value="rept-prog0" style="rounded=1;whiteSpace=wrap;html=1;" parent="FufW82lX-6NXtObVGsH1-1" vertex="1">
                    <mxGeometry x="247" y="2621" width="120" height="60" as="geometry"/>
                </mxCell>
                <mxCell id="7kuUUxd4Vx1_qMjfsYsJ-11" value="&amp;lt;structOrImplOrFunc&amp;gt;" style="whiteSpace=wrap;html=1;rounded=1;" parent="FufW82lX-6NXtObVGsH1-1" vertex="1">
                    <mxGeometry x="55" y="2623" width="120" height="60" as="geometry"/>
                </mxCell>
                <mxCell id="7kuUUxd4Vx1_qMjfsYsJ-13" style="edgeStyle=none;html=1;exitX=0.5;exitY=1;exitDx=0;exitDy=0;entryX=0.5;entryY=0;entryDx=0;entryDy=0;" parent="FufW82lX-6NXtObVGsH1-1" source="7kuUUxd4Vx1_qMjfsYsJ-15" target="7kuUUxd4Vx1_qMjfsYsJ-17" edge="1">
                    <mxGeometry relative="1" as="geometry"/>
                </mxCell>
                <mxCell id="7kuUUxd4Vx1_qMjfsYsJ-14" value="" style="edgeStyle=none;html=1;" parent="FufW82lX-6NXtObVGsH1-1" source="7kuUUxd4Vx1_qMjfsYsJ-15" target="7kuUUxd4Vx1_qMjfsYsJ-18" edge="1">
                    <mxGeometry relative="1" as="geometry"/>
                </mxCell>
                <mxCell id="7kuUUxd4Vx1_qMjfsYsJ-15" value="rept-prog0" style="rounded=1;whiteSpace=wrap;html=1;" parent="FufW82lX-6NXtObVGsH1-1" vertex="1">
                    <mxGeometry x="249" y="2718" width="120" height="60" as="geometry"/>
                </mxCell>
                <mxCell id="7kuUUxd4Vx1_qMjfsYsJ-16" value="" style="edgeStyle=none;html=1;" parent="FufW82lX-6NXtObVGsH1-1" source="7kuUUxd4Vx1_qMjfsYsJ-17" edge="1">
                    <mxGeometry relative="1" as="geometry">
                        <mxPoint x="408" y="2927" as="targetPoint"/>
                    </mxGeometry>
                </mxCell>
                <mxCell id="7kuUUxd4Vx1_qMjfsYsJ-17" value="rept-prog0" style="rounded=1;whiteSpace=wrap;html=1;" parent="FufW82lX-6NXtObVGsH1-1" vertex="1">
                    <mxGeometry x="348" y="2829" width="120" height="60" as="geometry"/>
                </mxCell>
                <mxCell id="7kuUUxd4Vx1_qMjfsYsJ-18" value="&amp;lt;structOrImplOrFunc&amp;gt;" style="whiteSpace=wrap;html=1;rounded=1;" parent="FufW82lX-6NXtObVGsH1-1" vertex="1">
                    <mxGeometry x="156" y="2831" width="120" height="60" as="geometry"/>
                </mxCell>
                <mxCell id="7kuUUxd4Vx1_qMjfsYsJ-19" style="edgeStyle=none;html=1;exitX=0.5;exitY=1;exitDx=0;exitDy=0;entryX=0.5;entryY=0;entryDx=0;entryDy=0;" parent="FufW82lX-6NXtObVGsH1-1" source="7kuUUxd4Vx1_qMjfsYsJ-21" target="7kuUUxd4Vx1_qMjfsYsJ-23" edge="1">
                    <mxGeometry relative="1" as="geometry"/>
                </mxCell>
                <mxCell id="7kuUUxd4Vx1_qMjfsYsJ-20" value="" style="edgeStyle=none;html=1;" parent="FufW82lX-6NXtObVGsH1-1" source="7kuUUxd4Vx1_qMjfsYsJ-21" target="7kuUUxd4Vx1_qMjfsYsJ-24" edge="1">
                    <mxGeometry relative="1" as="geometry"/>
                </mxCell>
                <mxCell id="7kuUUxd4Vx1_qMjfsYsJ-21" value="rept-prog0" style="rounded=1;whiteSpace=wrap;html=1;" parent="FufW82lX-6NXtObVGsH1-1" vertex="1">
                    <mxGeometry x="346" y="2925" width="120" height="60" as="geometry"/>
                </mxCell>
                <mxCell id="7kuUUxd4Vx1_qMjfsYsJ-26" value="" style="edgeStyle=none;html=1;" parent="FufW82lX-6NXtObVGsH1-1" source="7kuUUxd4Vx1_qMjfsYsJ-23" target="7kuUUxd4Vx1_qMjfsYsJ-25" edge="1">
                    <mxGeometry relative="1" as="geometry"/>
                </mxCell>
                <mxCell id="7kuUUxd4Vx1_qMjfsYsJ-23" value="rept-prog0" style="rounded=1;whiteSpace=wrap;html=1;" parent="FufW82lX-6NXtObVGsH1-1" vertex="1">
                    <mxGeometry x="445" y="3036" width="120" height="60" as="geometry"/>
                </mxCell>
                <mxCell id="7kuUUxd4Vx1_qMjfsYsJ-24" value="&amp;lt;structOrImplOrFunc&amp;gt;" style="whiteSpace=wrap;html=1;rounded=1;" parent="FufW82lX-6NXtObVGsH1-1" vertex="1">
                    <mxGeometry x="253" y="3038" width="120" height="60" as="geometry"/>
                </mxCell>
                <mxCell id="7kuUUxd4Vx1_qMjfsYsJ-25" value="EPSILON" style="whiteSpace=wrap;html=1;rounded=1;" parent="FufW82lX-6NXtObVGsH1-1" vertex="1">
                    <mxGeometry x="445" y="3122" width="120" height="60" as="geometry"/>
                </mxCell>
            </root>
        </mxGraphModel>
    </diagram>
</mxfile>